  0
SECTION
  2
HEADER
  9
$ACADVER
  1
AC1014
  9
$HANDSEED
  5
FFFF
  9
$MEASUREMENT
 70
     1
  0
ENDSEC
  0
SECTION
  2
TABLES
  0
TABLE
  2
VPORT
  5
8
330
0
100
AcDbSymbolTable
 70
     4
  0
VPORT
  5
2E
330
8
100
AcDbSymbolTableRecord
100
AcDbViewportTableRecord
  2
*ACTIVE
 70
     0
 10
0.0
 20
0.0
 11
1.0
 21
1.0
 12
210.0
 22
148.5
 13
0.0
 23
0.0
 14
10.0
 24
10.0
 15
10.0
 25
10.0
 16
0.0
 26
0.0
 36
1.0
 17
0.0
 27
0.0
 37
0.0
 40
341.0
 41
1.24
 42
50.0
 43
0.0
 44
0.0
 50
0.0
 51
0.0
 71
     0
 72
   100
 73
     1
 74
     3
 75
     0
 76
     0
 77
     0
 78
     0
  0
ENDTAB
  0
TABLE
  2
LTYPE
  5
5
330
0
100
AcDbSymbolTable
 70
     1
  0
LTYPE
  5
14
330
5
100
AcDbSymbolTableRecord
100
AcDbLinetypeTableRecord
  2
BYBLOCK
 70
     0
  3

 72
    65
 73
     0
 40
0.0
  0
LTYPE
  5
15
330
5
100
AcDbSymbolTableRecord
100
AcDbLinetypeTableRecord
  2
BYLAYER
 70
     0
  3

 72
    65
 73
     0
 40
0.0
  0
LTYPE
  5
16
330
5
100
AcDbSymbolTableRecord
100
AcDbLinetypeTableRecord
  2
CONTINUOUS
 70
     0
  3
Solid line
 72
    65
 73
     0
 40
0.0
  0
ENDTAB
  0
TABLE
  2
LAYER
  5
2
100
AcDbSymbolTable
 70
2
  0
LAYER
  5
50
100
AcDbSymbolTableRecord
100
AcDbLayerTableRecord
  2
0
 70
0
  6
CONTINUOUS
  0
LAYER
  5
51
100
AcDbSymbolTableRecord
100
AcDbLayerTableRecord
  2
Capa_1
 70
0
  6
CONTINUOUS
  0
ENDTAB
  0
TABLE
  2
STYLE
  5
3
330
0
100
AcDbSymbolTable
 70
     1
  0
STYLE
  5
11
330
3
100
AcDbSymbolTableRecord
100
AcDbTextStyleTableRecord
  2
STANDARD
 70
     0
 40
0.0
 41
1.0
 50
0.0
 71
     0
 42
2.5
  3
txt
  4

  0
ENDTAB
  0
TABLE
  2
VIEW
  5
6
330
0
100
AcDbSymbolTable
 70
     0
  0
ENDTAB
  0
TABLE
  2
UCS
  5
7
330
0
100
AcDbSymbolTable
 70
     0
  0
ENDTAB
  0
TABLE
  2
APPID
  5
9
330
0
100
AcDbSymbolTable
 70
     2
  0
APPID
  5
12
330
9
100
AcDbSymbolTableRecord
100
AcDbRegAppTableRecord
  2
ACAD
 70
     0
  0
ENDTAB
  0
TABLE
  2
DIMSTYLE
  5
A
330
0
100
AcDbSymbolTable
 70
     1
  0
DIMSTYLE
105
27
330
A
100
AcDbSymbolTableRecord
100
AcDbDimStyleTableRecord
  2
ISO-25
 70
     0
  3

  4

  5

  6

  7

 40
1.0
 41
2.5
 42
0.625
 43
3.75
 44
1.25
 45
0.0
 46
0.0
 47
0.0
 48
0.0
140
2.5
141
2.5
142
0.0
143
0.03937007874016
144
1.0
145
0.0
146
1.0
147
0.625
 71
     0
 72
     0
 73
     0
 74
     0
 75
     0
 76
     0
 77
     1
 78
     8
170
     0
171
     3
172
     1
173
     0
174
     0
175
     0
176
     0
177
     0
178
     0
270
     2
271
     2
272
     2
273
     2
274
     3
340
11
275
     0
280
     0
281
     0
282
     0
283
     0
284
     8
285
     0
286
     0
287
     3
288
     0
  0
ENDTAB
  0
TABLE
  2
BLOCK_RECORD
  5
1
330
0
100
AcDbSymbolTable
 70
     1
  0
BLOCK_RECORD
  5
1F
330
1
100
AcDbSymbolTableRecord
100
AcDbBlockTableRecord
  2
*MODEL_SPACE
  0
BLOCK_RECORD
  5
1B
330
1
100
AcDbSymbolTableRecord
100
AcDbBlockTableRecord
  2
*PAPER_SPACE
  0
ENDTAB
  0
ENDSEC
  0
SECTION
  2
BLOCKS
  0
BLOCK
  5
20
330
1F
100
AcDbEntity
  8
0
100
AcDbBlockBegin
  2
*MODEL_SPACE
 70
     0
 10
0.0
 20
0.0
 30
0.0
  3
*MODEL_SPACE
  1

  0
ENDBLK
  5
21
330
1F
100
AcDbEntity
  8
0
100
AcDbBlockEnd
  0
BLOCK
  5
1C
330
1B
100
AcDbEntity
 67
     1
  8
0
100
AcDbBlockBegin
  2
*PAPER_SPACE
  1

  0
ENDBLK
  5
1D
330
1B
100
AcDbEntity
 67
     1
  8
0
100
AcDbBlockEnd
  0
ENDSEC
  0
SECTION
  2
ENTITIES
  0
LWPOLYLINE
  5
100
100
AcDbEntity
  8
Capa_1
 62
7
100
AcDbPolyline
 90
88
 70
1
 10
-16.547325
 20
-1.131440
 30
0.0
 10
-16.479925
 20
-1.553244
 30
0.0
 10
-16.246786
 20
-2.649604
 30
0.0
 10
-15.801502
 20
-4.166939
 30
0.0
 10
-15.097666
 20
-5.851671
 30
0.0
 10
-14.088871
 20
-7.450217
 30
0.0
 10
-12.728711
 20
-8.709001
 30
0.0
 10
-10.970779
 20
-9.374441
 30
0.0
 10
-8.768668
 20
-9.192958
 30
0.0
 10
-6.903558
 20
-8.318413
 30
0.0
 10
-5.966584
 20
-7.155482
 30
0.0
 10
-5.626267
 20
-5.826810
 30
0.0
 10
-5.551132
 20
-4.455049
 30
0.0
 10
-5.409703
 20
-3.162842
 30
0.0
 10
-4.870500
 20
-2.072836
 30
0.0
 10
-3.602049
 20
-1.307677
 30
0.0
 10
-1.272871
 20
-0.990010
 30
0.0
 10
1.450764
 20
-1.216795
 30
0.0
 10
3.703702
 20
-1.902677
 30
0.0
 10
5.519088
 20
-2.896830
 30
0.0
 10
6.930076
 20
-4.048437
 30
0.0
 10
7.969807
 20
-5.206672
 30
0.0
 10
8.671434
 20
-6.220714
 30
0.0
 10
9.068100
 20
-6.939743
 30
0.0
 10
9.192957
 20
-7.212936
 30
0.0
 10
8.768666
 20
-7.566512
 30
0.0
 10
8.344378
 20
-7.920088
 30
0.0
 10
7.920086
 20
-8.273661
 30
0.0
 10
7.495795
 20
-8.627237
 30
0.0
 10
7.071504
 20
-8.980813
 30
0.0
 10
6.647216
 20
-9.334389
 30
0.0
 10
6.222925
 20
-9.687962
 30
0.0
 10
5.798633
 20
-10.041538
 30
0.0
 10
6.682572
 20
-10.059212
 30
0.0
 10
7.566511
 20
-10.076886
 30
0.0
 10
8.450449
 20
-10.094561
 30
0.0
 10
9.334388
 20
-10.112235
 30
0.0
 10
10.218326
 20
-10.129909
 30
0.0
 10
11.102265
 20
-10.147583
 30
0.0
 10
11.986203
 20
-10.165257
 30
0.0
 10
12.870142
 20
-10.182931
 30
0.0
 10
13.064608
 20
-9.352029
 30
0.0
 10
13.259074
 20
-8.521128
 30
0.0
 10
13.453540
 20
-7.690226
 30
0.0
 10
13.648006
 20
-6.859323
 30
0.0
 10
13.842475
 20
-6.028420
 30
0.0
 10
14.036941
 20
-5.197520
 30
0.0
 10
14.231407
 20
-4.366617
 30
0.0
 10
14.425873
 20
-3.535714
 30
0.0
 10
14.125333
 20
-3.765539
 30
0.0
 10
13.824795
 20
-3.995362
 30
0.0
 10
13.524255
 20
-4.225187
 30
0.0
 10
13.223715
 20
-4.455012
 30
0.0
 10
12.923177
 20
-4.684834
 30
0.0
 10
12.622637
 20
-4.914659
 30
0.0
 10
12.322100
 20
-5.144482
 30
0.0
 10
12.021559
 20
-5.374307
 30
0.0
 10
11.959959
 20
-5.078741
 30
0.0
 10
11.714391
 20
-4.282644
 30
0.0
 10
11.193697
 20
-3.121922
 30
0.0
 10
10.306721
 20
-1.732481
 30
0.0
 10
8.962304
 20
-0.250227
 30
0.0
 10
7.069295
 20
1.188934
 30
0.0
 10
4.536537
 20
2.449100
 30
0.0
 10
1.272871
 20
3.394361
 30
0.0
 10
-1.847708
 20
3.605953
 30
0.0
 10
-4.041808
 20
2.939132
 30
0.0
 10
-5.536493
 20
1.669023
 30
0.0
 10
-6.558822
 20
0.070752
 30
0.0
 10
-7.335859
 20
-1.580555
 30
0.0
 10
-8.094665
 20
-3.009773
 30
0.0
 10
-9.062301
 20
-3.941776
 30
0.0
 10
-10.465829
 20
-4.101436
 30
0.0
 10
-11.862451
 20
-3.614716
 30
0.0
 10
-12.728711
 20
-2.859503
 30
0.0
 10
-13.170680
 20
-1.938549
 30
0.0
 10
-13.294431
 20
-0.954617
 30
0.0
 10
-13.206038
 20
-0.010459
 30
0.0
 10
-13.011571
 20
0.791162
 30
0.0
 10
-12.817105
 20
1.347491
 30
0.0
 10
-12.728711
 20
1.555769
 30
0.0
 10
-13.206038
 20
1.219872
 30
0.0
 10
-13.683365
 20
0.883976
 30
0.0
 10
-14.160691
 20
0.548079
 30
0.0
 10
-14.638018
 20
0.212183
 30
0.0
 10
-15.115345
 20
-0.123714
 30
0.0
 10
-15.592671
 20
-0.459610
 30
0.0
 10
-16.069998
 20
-0.795507
 30
0.0
  0
ENDSEC
  0
SECTION
  2
OBJECTS
  0
DICTIONARY
  5
C
330
0
100
AcDbDictionary
  3
ACAD_GROUP
350
D
  3
ACAD_MLINESTYLE
350
17
  0
DICTIONARY
  5
D
330
C
100
AcDbDictionary
  0
DICTIONARY
  5
1A
330
C
100
AcDbDictionary
  0
DICTIONARY
  5
17
330
C
100
AcDbDictionary
  3
STANDARD
350
18
  0
DICTIONARY
  5
19
330
C
100
AcDbDictionary
  0
ENDSEC
  0
EOF
