  0
SECTION
  2
HEADER
  9
$ACADVER
  1
AC1014
  9
$HANDSEED
  5
FFFF
  9
$MEASUREMENT
 70
     1
  0
ENDSEC
  0
SECTION
  2
TABLES
  0
TABLE
  2
VPORT
  5
8
330
0
100
AcDbSymbolTable
 70
     4
  0
VPORT
  5
2E
330
8
100
AcDbSymbolTableRecord
100
AcDbViewportTableRecord
  2
*ACTIVE
 70
     0
 10
0.0
 20
0.0
 11
1.0
 21
1.0
 12
210.0
 22
148.5
 13
0.0
 23
0.0
 14
10.0
 24
10.0
 15
10.0
 25
10.0
 16
0.0
 26
0.0
 36
1.0
 17
0.0
 27
0.0
 37
0.0
 40
341.0
 41
1.24
 42
50.0
 43
0.0
 44
0.0
 50
0.0
 51
0.0
 71
     0
 72
   100
 73
     1
 74
     3
 75
     0
 76
     0
 77
     0
 78
     0
  0
ENDTAB
  0
TABLE
  2
LTYPE
  5
5
330
0
100
AcDbSymbolTable
 70
     1
  0
LTYPE
  5
14
330
5
100
AcDbSymbolTableRecord
100
AcDbLinetypeTableRecord
  2
BYBLOCK
 70
     0
  3

 72
    65
 73
     0
 40
0.0
  0
LTYPE
  5
15
330
5
100
AcDbSymbolTableRecord
100
AcDbLinetypeTableRecord
  2
BYLAYER
 70
     0
  3

 72
    65
 73
     0
 40
0.0
  0
LTYPE
  5
16
330
5
100
AcDbSymbolTableRecord
100
AcDbLinetypeTableRecord
  2
CONTINUOUS
 70
     0
  3
Solid line
 72
    65
 73
     0
 40
0.0
  0
ENDTAB
  0
TABLE
  2
LAYER
  5
2
100
AcDbSymbolTable
 70
3
  0
LAYER
  5
50
100
AcDbSymbolTableRecord
100
AcDbLayerTableRecord
  2
0
 70
0
  6
CONTINUOUS
  0
LAYER
  5
51
100
AcDbSymbolTableRecord
100
AcDbLayerTableRecord
  2
capaCirculo
 70
0
  6
CONTINUOUS
  0
LAYER
  5
52
100
AcDbSymbolTableRecord
100
AcDbLayerTableRecord
  2
capaRombo
 70
0
  6
CONTINUOUS
  0
ENDTAB
  0
TABLE
  2
STYLE
  5
3
330
0
100
AcDbSymbolTable
 70
     1
  0
STYLE
  5
11
330
3
100
AcDbSymbolTableRecord
100
AcDbTextStyleTableRecord
  2
STANDARD
 70
     0
 40
0.0
 41
1.0
 50
0.0
 71
     0
 42
2.5
  3
txt
  4

  0
ENDTAB
  0
TABLE
  2
VIEW
  5
6
330
0
100
AcDbSymbolTable
 70
     0
  0
ENDTAB
  0
TABLE
  2
UCS
  5
7
330
0
100
AcDbSymbolTable
 70
     0
  0
ENDTAB
  0
TABLE
  2
APPID
  5
9
330
0
100
AcDbSymbolTable
 70
     2
  0
APPID
  5
12
330
9
100
AcDbSymbolTableRecord
100
AcDbRegAppTableRecord
  2
ACAD
 70
     0
  0
ENDTAB
  0
TABLE
  2
DIMSTYLE
  5
A
330
0
100
AcDbSymbolTable
 70
     1
  0
DIMSTYLE
105
27
330
A
100
AcDbSymbolTableRecord
100
AcDbDimStyleTableRecord
  2
ISO-25
 70
     0
  3

  4

  5

  6

  7

 40
1.0
 41
2.5
 42
0.625
 43
3.75
 44
1.25
 45
0.0
 46
0.0
 47
0.0
 48
0.0
140
2.5
141
2.5
142
0.0
143
0.03937007874016
144
1.0
145
0.0
146
1.0
147
0.625
 71
     0
 72
     0
 73
     0
 74
     0
 75
     0
 76
     0
 77
     1
 78
     8
170
     0
171
     3
172
     1
173
     0
174
     0
175
     0
176
     0
177
     0
178
     0
270
     2
271
     2
272
     2
273
     2
274
     3
340
11
275
     0
280
     0
281
     0
282
     0
283
     0
284
     8
285
     0
286
     0
287
     3
288
     0
  0
ENDTAB
  0
TABLE
  2
BLOCK_RECORD
  5
1
330
0
100
AcDbSymbolTable
 70
     1
  0
BLOCK_RECORD
  5
1F
330
1
100
AcDbSymbolTableRecord
100
AcDbBlockTableRecord
  2
*MODEL_SPACE
  0
BLOCK_RECORD
  5
1B
330
1
100
AcDbSymbolTableRecord
100
AcDbBlockTableRecord
  2
*PAPER_SPACE
  0
ENDTAB
  0
ENDSEC
  0
SECTION
  2
BLOCKS
  0
BLOCK
  5
20
330
1F
100
AcDbEntity
  8
0
100
AcDbBlockBegin
  2
*MODEL_SPACE
 70
     0
 10
0.0
 20
0.0
 30
0.0
  3
*MODEL_SPACE
  1

  0
ENDBLK
  5
21
330
1F
100
AcDbEntity
  8
0
100
AcDbBlockEnd
  0
BLOCK
  5
1C
330
1B
100
AcDbEntity
 67
     1
  8
0
100
AcDbBlockBegin
  2
*PAPER_SPACE
  1

  0
ENDBLK
  5
1D
330
1B
100
AcDbEntity
 67
     1
  8
0
100
AcDbBlockEnd
  0
ENDSEC
  0
SECTION
  2
ENTITIES
  0
LWPOLYLINE
  5
100
100
AcDbEntity
  8
capaCirculo
 62
7
100
AcDbPolyline
 90
65
 70
0
 10
0.319747
 20
9.375995
 30
0.0
 10
0.165590
 20
9.403281
 30
0.0
 10
0.019402
 20
9.439288
 30
0.0
 10
-0.118232
 20
9.483439
 30
0.0
 10
-0.246726
 20
9.535160
 30
0.0
 10
-0.365494
 20
9.593876
 30
0.0
 10
-0.473951
 20
9.659011
 30
0.0
 10
-0.571511
 20
9.729989
 30
0.0
 10
-0.657588
 20
9.806239
 30
0.0
 10
-0.731597
 20
9.887180
 30
0.0
 10
-0.792953
 20
9.972244
 30
0.0
 10
-0.841070
 20
10.060850
 30
0.0
 10
-0.875362
 20
10.152428
 30
0.0
 10
-0.895243
 20
10.246400
 30
0.0
 10
-0.900128
 20
10.342189
 30
0.0
 10
-0.889432
 20
10.439223
 30
0.0
 10
-0.862569
 20
10.536928
 30
0.0
 10
-0.820023
 20
10.632482
 30
0.0
 10
-0.763287
 20
10.723200
 30
0.0
 10
-0.693284
 20
10.808716
 30
0.0
 10
-0.610940
 20
10.888665
 30
0.0
 10
-0.517177
 20
10.962674
 30
0.0
 10
-0.412921
 20
11.030379
 30
0.0
 10
-0.299095
 20
11.091407
 30
0.0
 10
-0.176624
 20
11.145398
 30
0.0
 10
-0.046432
 20
11.191978
 30
0.0
 10
0.090556
 20
11.230779
 30
0.0
 10
0.233417
 20
11.261439
 30
0.0
 10
0.381227
 20
11.283585
 30
0.0
 10
0.533060
 20
11.296840
 30
0.0
 10
0.687993
 20
11.300862
 30
0.0
 10
0.845102
 20
11.295253
 30
0.0
 10
1.003462
 20
11.279669
 30
0.0
 10
1.158504
 20
11.254375
 30
0.0
 10
1.305873
 20
11.220257
 30
0.0
 10
1.444963
 20
11.177884
 30
0.0
 10
1.575169
 20
11.127827
 30
0.0
 10
1.695888
 20
11.070651
 30
0.0
 10
1.806514
 20
11.006923
 30
0.0
 10
1.906442
 20
10.937214
 30
0.0
 10
1.995067
 20
10.862090
 30
0.0
 10
2.071785
 20
10.782115
 30
0.0
 10
2.135991
 20
10.697861
 30
0.0
 10
2.187080
 20
10.609890
 30
0.0
 10
2.224446
 20
10.518775
 30
0.0
 10
2.247487
 20
10.425081
 30
0.0
 10
2.255595
 20
10.329373
 30
0.0
 10
2.248167
 20
10.232221
 30
0.0
 10
2.224598
 20
10.134193
 30
0.0
 10
2.185278
 20
10.038114
 30
0.0
 10
2.131608
 20
9.946685
 30
0.0
 10
2.064499
 20
9.860285
 30
0.0
 10
1.984863
 20
9.779296
 30
0.0
 10
1.893612
 20
9.704096
 30
0.0
 10
1.791657
 20
9.635067
 30
0.0
 10
1.679911
 20
9.572588
 30
0.0
 10
1.559283
 20
9.517036
 30
0.0
 10
1.430688
 20
9.468792
 30
0.0
 10
1.295035
 20
9.428237
 30
0.0
 10
1.153236
 20
9.395748
 30
0.0
 10
1.006204
 20
9.371698
 30
0.0
 10
0.854850
 20
9.356484
 30
0.0
 10
0.700086
 20
9.350478
 30
0.0
 10
0.542823
 20
9.354050
 30
0.0
 10
0.383972
 20
9.367597
 30
0.0
  0
LWPOLYLINE
  5
101
100
AcDbEntity
  8
capaCirculo
 62
7
100
AcDbPolyline
 90
65
 70
0
 10
-0.463528
 20
3.077223
 30
0.0
 10
-0.969479
 20
3.212960
 30
0.0
 10
-1.449276
 20
3.392069
 30
0.0
 10
-1.900997
 20
3.611695
 30
0.0
 10
-2.322720
 20
3.868970
 30
0.0
 10
-2.712523
 20
4.161041
 30
0.0
 10
-3.068484
 20
4.485045
 30
0.0
 10
-3.388681
 20
4.838121
 30
0.0
 10
-3.671191
 20
5.217409
 30
0.0
 10
-3.914094
 20
5.620049
 30
0.0
 10
-4.115467
 20
6.043181
 30
0.0
 10
-4.273389
 20
6.483945
 30
0.0
 10
-4.385936
 20
6.939481
 30
0.0
 10
-4.451187
 20
7.406926
 30
0.0
 10
-4.467221
 20
7.883422
 30
0.0
 10
-4.432116
 20
8.366109
 30
0.0
 10
-4.343948
 20
8.852125
 30
0.0
 10
-4.204311
 20
9.327441
 30
0.0
 10
-4.018100
 20
9.778709
 30
0.0
 10
-3.788348
 20
10.204101
 30
0.0
 10
-3.518088
 20
10.601788
 30
0.0
 10
-3.210354
 20
10.969937
 30
0.0
 10
-2.868180
 20
11.306720
 30
0.0
 10
-2.494598
 20
11.610308
 30
0.0
 10
-2.092642
 20
11.878868
 30
0.0
 10
-1.665346
 20
12.110574
 30
0.0
 10
-1.215742
 20
12.303593
 30
0.0
 10
-0.746865
 20
12.456096
 30
0.0
 10
-0.261747
 20
12.566253
 30
0.0
 10
0.236578
 20
12.632232
 30
0.0
 10
0.745076
 20
12.652208
 30
0.0
 10
1.260714
 20
12.624348
 30
0.0
 10
1.780459
 20
12.546819
 30
0.0
 10
2.289316
 20
12.420970
 30
0.0
 10
2.772987
 20
12.251251
 30
0.0
 10
3.229488
 20
12.040476
 30
0.0
 10
3.656833
 20
11.791471
 30
0.0
 10
4.053038
 20
11.507060
 30
0.0
 10
4.416118
 20
11.190063
 30
0.0
 10
4.744086
 20
10.843302
 30
0.0
 10
5.034959
 20
10.469602
 30
0.0
 10
5.286752
 20
10.071783
 30
0.0
 10
5.497478
 20
9.652664
 30
0.0
 10
5.665154
 20
9.215075
 30
0.0
 10
5.787794
 20
8.761831
 30
0.0
 10
5.863413
 20
8.295759
 30
0.0
 10
5.890025
 20
7.819678
 30
0.0
 10
5.865646
 20
7.336412
 30
0.0
 10
5.788292
 20
6.848782
 30
0.0
 10
5.659241
 20
6.370849
 30
0.0
 10
5.483092
 20
5.916049
 30
0.0
 10
5.262837
 20
5.486273
 30
0.0
 10
5.001467
 20
5.083405
 30
0.0
 10
4.701976
 20
4.709340
 30
0.0
 10
4.367355
 20
4.365961
 30
0.0
 10
4.000596
 20
4.055160
 30
0.0
 10
3.604692
 20
3.778824
 30
0.0
 10
3.182634
 20
3.538842
 30
0.0
 10
2.737414
 20
3.337105
 30
0.0
 10
2.272025
 20
3.175497
 30
0.0
 10
1.789459
 20
3.055914
 30
0.0
 10
1.292707
 20
2.980235
 30
0.0
 10
0.784763
 20
2.950356
 30
0.0
 10
0.268617
 20
2.968162
 30
0.0
 10
-0.252737
 20
3.035543
 30
0.0
  0
LWPOLYLINE
  5
102
100
AcDbEntity
  8
capaRombo
 62
7
100
AcDbPolyline
 90
33
 70
0
 10
0.019425
 20
0.487960
 30
0.0
 10
-0.445020
 20
0.646324
 30
0.0
 10
-0.856552
 20
0.886201
 30
0.0
 10
-1.207927
 20
1.196078
 30
0.0
 10
-1.491899
 20
1.564452
 30
0.0
 10
-1.701226
 20
1.979811
 30
0.0
 10
-1.828662
 20
2.430642
 30
0.0
 10
-1.866963
 20
2.905440
 30
0.0
 10
-1.808884
 20
3.392691
 30
0.0
 10
-1.655360
 20
3.858757
 30
0.0
 10
-1.419777
 20
4.272762
 30
0.0
 10
-1.113568
 20
4.627340
 30
0.0
 10
-0.748168
 20
4.915130
 30
0.0
 10
-0.335010
 20
5.128765
 30
0.0
 10
0.114472
 20
5.260882
 30
0.0
 10
0.588845
 20
5.304121
 30
0.0
 10
1.076675
 20
5.251111
 30
0.0
 10
1.544314
 20
5.102442
 30
0.0
 10
1.960746
 20
4.871178
 30
0.0
 10
2.318490
 20
4.568674
 30
0.0
 10
2.610064
 20
4.206285
 30
0.0
 10
2.827984
 20
3.795371
 30
0.0
 10
2.964769
 20
3.347286
 30
0.0
 10
3.012936
 20
2.873388
 30
0.0
 10
2.965004
 20
2.385034
 30
0.0
 10
2.821206
 20
1.915874
 30
0.0
 10
2.594285
 20
1.497060
 30
0.0
 10
2.295517
 20
1.136190
 30
0.0
 10
1.936182
 20
0.840864
 30
0.0
 10
1.527557
 20
0.618680
 30
0.0
 10
1.080920
 20
0.477242
 30
0.0
 10
0.607549
 20
0.424151
 30
0.0
 10
0.118722
 20
0.467000
 30
0.0
  0
LWPOLYLINE
  5
103
100
AcDbEntity
  8
capaRombo
 62
7
100
AcDbPolyline
 90
32
 70
1
 10
0.396033
 20
8.839454
 30
0.0
 10
-0.479066
 20
7.982035
 30
0.0
 10
-1.354165
 20
7.124615
 30
0.0
 10
-2.229264
 20
6.267193
 30
0.0
 10
-3.104363
 20
5.409774
 30
0.0
 10
-3.979462
 20
4.552355
 30
0.0
 10
-4.854560
 20
3.694935
 30
0.0
 10
-5.729659
 20
2.837513
 30
0.0
 10
-6.604758
 20
1.980094
 30
0.0
 10
-5.729659
 20
1.113835
 30
0.0
 10
-4.854560
 20
0.247576
 30
0.0
 10
-3.979462
 20
-0.618683
 30
0.0
 10
-3.104363
 20
-1.484942
 30
0.0
 10
-2.229264
 20
-2.351201
 30
0.0
 10
-1.354165
 20
-3.217460
 30
0.0
 10
-0.479066
 20
-4.083722
 30
0.0
 10
0.396033
 20
-4.949981
 30
0.0
 10
1.324168
 20
-4.074882
 30
0.0
 10
2.252303
 20
-3.199784
 30
0.0
 10
3.180438
 20
-2.324685
 30
0.0
 10
4.108574
 20
-1.449586
 30
0.0
 10
5.036709
 20
-0.574487
 30
0.0
 10
5.964844
 20
0.300612
 30
0.0
 10
6.892979
 20
1.175710
 30
0.0
 10
7.821115
 20
2.050809
 30
0.0
 10
6.892979
 20
2.899389
 30
0.0
 10
5.964844
 20
3.747971
 30
0.0
 10
5.036709
 20
4.596551
 30
0.0
 10
4.108574
 20
5.445133
 30
0.0
 10
3.180439
 20
6.293713
 30
0.0
 10
2.252304
 20
7.142295
 30
0.0
 10
1.324168
 20
7.990874
 30
0.0
  0
ENDSEC
  0
SECTION
  2
OBJECTS
  0
DICTIONARY
  5
C
330
0
100
AcDbDictionary
  3
ACAD_GROUP
350
D
  3
ACAD_MLINESTYLE
350
17
  0
DICTIONARY
  5
D
330
C
100
AcDbDictionary
  0
DICTIONARY
  5
1A
330
C
100
AcDbDictionary
  0
DICTIONARY
  5
17
330
C
100
AcDbDictionary
  3
STANDARD
350
18
  0
DICTIONARY
  5
19
330
C
100
AcDbDictionary
  0
ENDSEC
  0
EOF
