  0
SECTION
  2
HEADER
  9
$ACADVER
  1
AC1014
  9
$HANDSEED
  5
FFFF
  9
$MEASUREMENT
 70
     1
  0
ENDSEC
  0
SECTION
  2
TABLES
  0
TABLE
  2
VPORT
  5
8
330
0
100
AcDbSymbolTable
 70
     4
  0
VPORT
  5
2E
330
8
100
AcDbSymbolTableRecord
100
AcDbViewportTableRecord
  2
*ACTIVE
 70
     0
 10
0.0
 20
0.0
 11
1.0
 21
1.0
 12
210.0
 22
148.5
 13
0.0
 23
0.0
 14
10.0
 24
10.0
 15
10.0
 25
10.0
 16
0.0
 26
0.0
 36
1.0
 17
0.0
 27
0.0
 37
0.0
 40
341.0
 41
1.24
 42
50.0
 43
0.0
 44
0.0
 50
0.0
 51
0.0
 71
     0
 72
   100
 73
     1
 74
     3
 75
     0
 76
     0
 77
     0
 78
     0
  0
ENDTAB
  0
TABLE
  2
LTYPE
  5
5
330
0
100
AcDbSymbolTable
 70
     1
  0
LTYPE
  5
14
330
5
100
AcDbSymbolTableRecord
100
AcDbLinetypeTableRecord
  2
BYBLOCK
 70
     0
  3

 72
    65
 73
     0
 40
0.0
  0
LTYPE
  5
15
330
5
100
AcDbSymbolTableRecord
100
AcDbLinetypeTableRecord
  2
BYLAYER
 70
     0
  3

 72
    65
 73
     0
 40
0.0
  0
LTYPE
  5
16
330
5
100
AcDbSymbolTableRecord
100
AcDbLinetypeTableRecord
  2
CONTINUOUS
 70
     0
  3
Solid line
 72
    65
 73
     0
 40
0.0
  0
ENDTAB
  0
TABLE
  2
LAYER
  5
2
100
AcDbSymbolTable
 70
2
  0
LAYER
  5
50
100
AcDbSymbolTableRecord
100
AcDbLayerTableRecord
  2
0
 70
0
  6
CONTINUOUS
  0
LAYER
  5
51
100
AcDbSymbolTableRecord
100
AcDbLayerTableRecord
  2
Capa_1
 70
0
  6
CONTINUOUS
  0
ENDTAB
  0
TABLE
  2
STYLE
  5
3
330
0
100
AcDbSymbolTable
 70
     1
  0
STYLE
  5
11
330
3
100
AcDbSymbolTableRecord
100
AcDbTextStyleTableRecord
  2
STANDARD
 70
     0
 40
0.0
 41
1.0
 50
0.0
 71
     0
 42
2.5
  3
txt
  4

  0
ENDTAB
  0
TABLE
  2
VIEW
  5
6
330
0
100
AcDbSymbolTable
 70
     0
  0
ENDTAB
  0
TABLE
  2
UCS
  5
7
330
0
100
AcDbSymbolTable
 70
     0
  0
ENDTAB
  0
TABLE
  2
APPID
  5
9
330
0
100
AcDbSymbolTable
 70
     2
  0
APPID
  5
12
330
9
100
AcDbSymbolTableRecord
100
AcDbRegAppTableRecord
  2
ACAD
 70
     0
  0
ENDTAB
  0
TABLE
  2
DIMSTYLE
  5
A
330
0
100
AcDbSymbolTable
 70
     1
  0
DIMSTYLE
105
27
330
A
100
AcDbSymbolTableRecord
100
AcDbDimStyleTableRecord
  2
ISO-25
 70
     0
  3

  4

  5

  6

  7

 40
1.0
 41
2.5
 42
0.625
 43
3.75
 44
1.25
 45
0.0
 46
0.0
 47
0.0
 48
0.0
140
2.5
141
2.5
142
0.0
143
0.03937007874016
144
1.0
145
0.0
146
1.0
147
0.625
 71
     0
 72
     0
 73
     0
 74
     0
 75
     0
 76
     0
 77
     1
 78
     8
170
     0
171
     3
172
     1
173
     0
174
     0
175
     0
176
     0
177
     0
178
     0
270
     2
271
     2
272
     2
273
     2
274
     3
340
11
275
     0
280
     0
281
     0
282
     0
283
     0
284
     8
285
     0
286
     0
287
     3
288
     0
  0
ENDTAB
  0
TABLE
  2
BLOCK_RECORD
  5
1
330
0
100
AcDbSymbolTable
 70
     1
  0
BLOCK_RECORD
  5
1F
330
1
100
AcDbSymbolTableRecord
100
AcDbBlockTableRecord
  2
*MODEL_SPACE
  0
BLOCK_RECORD
  5
1B
330
1
100
AcDbSymbolTableRecord
100
AcDbBlockTableRecord
  2
*PAPER_SPACE
  0
ENDTAB
  0
ENDSEC
  0
SECTION
  2
BLOCKS
  0
BLOCK
  5
20
330
1F
100
AcDbEntity
  8
0
100
AcDbBlockBegin
  2
*MODEL_SPACE
 70
     0
 10
0.0
 20
0.0
 30
0.0
  3
*MODEL_SPACE
  1

  0
ENDBLK
  5
21
330
1F
100
AcDbEntity
  8
0
100
AcDbBlockEnd
  0
BLOCK
  5
1C
330
1B
100
AcDbEntity
 67
     1
  8
0
100
AcDbBlockBegin
  2
*PAPER_SPACE
  1

  0
ENDBLK
  5
1D
330
1B
100
AcDbEntity
 67
     1
  8
0
100
AcDbBlockEnd
  0
ENDSEC
  0
SECTION
  2
ENTITIES
  0
LWPOLYLINE
  5
100
100
AcDbEntity
  8
Capa_1
 62
7
100
AcDbPolyline
 90
48
 70
1
 10
-4.300267
 20
-2.300142
 30
0.0
 10
-3.781485
 20
-2.300142
 30
0.0
 10
-3.262702
 20
-2.300142
 30
0.0
 10
-2.743920
 20
-2.300142
 30
0.0
 10
-2.225138
 20
-2.300142
 30
0.0
 10
-1.706356
 20
-2.300142
 30
0.0
 10
-1.187574
 20
-2.300142
 30
0.0
 10
-0.668792
 20
-2.300142
 30
0.0
 10
-0.150010
 20
-2.300142
 30
0.0
 10
0.368772
 20
-2.300142
 30
0.0
 10
0.887554
 20
-2.300142
 30
0.0
 10
1.406336
 20
-2.300142
 30
0.0
 10
1.925118
 20
-2.300142
 30
0.0
 10
2.443902
 20
-2.300142
 30
0.0
 10
2.962684
 20
-2.300142
 30
0.0
 10
3.481466
 20
-2.300142
 30
0.0
 10
4.000248
 20
-2.300142
 30
0.0
 10
3.991649
 20
-2.343968
 30
0.0
 10
3.964302
 20
-2.467925
 30
0.0
 10
3.915862
 20
-2.660735
 30
0.0
 10
3.843982
 20
-2.911118
 30
0.0
 10
3.746322
 20
-3.207790
 30
0.0
 10
3.620531
 20
-3.539477
 30
0.0
 10
3.464271
 20
-3.894894
 30
0.0
 10
3.275197
 20
-4.262763
 30
0.0
 10
3.050965
 20
-4.631804
 30
0.0
 10
2.789231
 20
-4.990738
 30
0.0
 10
2.487649
 20
-5.328285
 30
0.0
 10
2.143878
 20
-5.633162
 30
0.0
 10
1.755573
 20
-5.894091
 30
0.0
 10
1.320389
 20
-6.099791
 30
0.0
 10
0.835985
 20
-6.238986
 30
0.0
 10
0.300013
 20
-6.300391
 30
0.0
 10
-0.246066
 20
-6.271948
 30
0.0
 10
-0.759037
 20
-6.157217
 30
0.0
 10
-1.238608
 20
-5.968362
 30
0.0
 10
-1.684485
 20
-5.717543
 30
0.0
 10
-2.096376
 20
-5.416912
 30
0.0
 10
-2.473987
 20
-5.078635
 30
0.0
 10
-2.817026
 20
-4.714867
 30
0.0
 10
-3.125199
 20
-4.337770
 30
0.0
 10
-3.398214
 20
-3.959498
 30
0.0
 10
-3.635778
 20
-3.592214
 30
0.0
 10
-3.837597
 20
-3.248078
 30
0.0
 10
-4.003379
 20
-2.939243
 30
0.0
 10
-4.132830
 20
-2.677874
 30
0.0
 10
-4.225658
 20
-2.476130
 30
0.0
 10
-4.281570
 20
-2.346166
 30
0.0
  0
LWPOLYLINE
  5
101
100
AcDbEntity
  8
Capa_1
 62
7
100
AcDbPolyline
 90
64
 70
1
 10
3.100196
 20
4.300268
 30
0.0
 10
3.095037
 20
4.095766
 30
0.0
 10
3.079876
 20
3.897172
 30
0.0
 10
3.055243
 20
3.705492
 30
0.0
 10
3.021615
 20
3.521729
 30
0.0
 10
2.979501
 20
3.346889
 30
0.0
 10
2.929408
 20
3.181980
 30
0.0
 10
2.871837
 20
3.028003
 30
0.0
 10
2.807292
 20
2.885967
 30
0.0
 10
2.736272
 20
2.756874
 30
0.0
 10
2.659284
 20
2.641732
 30
0.0
 10
2.576829
 20
2.541548
 30
0.0
 10
2.489411
 20
2.457323
 30
0.0
 10
2.397529
 20
2.390066
 30
0.0
 10
2.301686
 20
2.340779
 30
0.0
 10
2.202391
 20
2.310471
 30
0.0
 10
2.100140
 20
2.300153
 30
0.0
 10
1.997889
 20
2.310471
 30
0.0
 10
1.898594
 20
2.340779
 30
0.0
 10
1.802754
 20
2.390066
 30
0.0
 10
1.710872
 20
2.457326
 30
0.0
 10
1.623451
 20
2.541548
 30
0.0
 10
1.540996
 20
2.641735
 30
0.0
 10
1.464007
 20
2.756876
 30
0.0
 10
1.392991
 20
2.885967
 30
0.0
 10
1.328443
 20
3.028003
 30
0.0
 10
1.270872
 20
3.181980
 30
0.0
 10
1.220781
 20
3.346889
 30
0.0
 10
1.178668
 20
3.521729
 30
0.0
 10
1.145039
 20
3.705492
 30
0.0
 10
1.120406
 20
3.897172
 30
0.0
 10
1.105246
 20
4.095766
 30
0.0
 10
1.100086
 20
4.300268
 30
0.0
 10
1.105246
 20
4.504769
 30
0.0
 10
1.120406
 20
4.703363
 30
0.0
 10
1.145039
 20
4.895043
 30
0.0
 10
1.178668
 20
5.078807
 30
0.0
 10
1.220781
 20
5.253646
 30
0.0
 10
1.270872
 20
5.418556
 30
0.0
 10
1.328443
 20
5.572532
 30
0.0
 10
1.392991
 20
5.714569
 30
0.0
 10
1.464007
 20
5.843659
 30
0.0
 10
1.540996
 20
5.958800
 30
0.0
 10
1.623451
 20
6.058987
 30
0.0
 10
1.710872
 20
6.143210
 30
0.0
 10
1.802754
 20
6.210469
 30
0.0
 10
1.898594
 20
6.259756
 30
0.0
 10
1.997889
 20
6.290064
 30
0.0
 10
2.100140
 20
6.300383
 30
0.0
 10
2.202391
 20
6.290064
 30
0.0
 10
2.301686
 20
6.259756
 30
0.0
 10
2.397529
 20
6.210469
 30
0.0
 10
2.489411
 20
6.143212
 30
0.0
 10
2.576829
 20
6.058987
 30
0.0
 10
2.659284
 20
5.958803
 30
0.0
 10
2.736272
 20
5.843662
 30
0.0
 10
2.807292
 20
5.714569
 30
0.0
 10
2.871837
 20
5.572532
 30
0.0
 10
2.929408
 20
5.418556
 30
0.0
 10
2.979501
 20
5.253646
 30
0.0
 10
3.021615
 20
5.078807
 30
0.0
 10
3.055243
 20
4.895043
 30
0.0
 10
3.079876
 20
4.703363
 30
0.0
 10
3.095037
 20
4.504769
 30
0.0
  0
LWPOLYLINE
  5
102
100
AcDbEntity
  8
Capa_1
 62
7
100
AcDbPolyline
 90
64
 70
1
 10
-1.900118
 20
4.400275
 30
0.0
 10
-1.905280
 20
4.195773
 30
0.0
 10
-1.920435
 20
3.997179
 30
0.0
 10
-1.945078
 20
3.805499
 30
0.0
 10
-1.978707
 20
3.621736
 30
0.0
 10
-2.020820
 20
3.446896
 30
0.0
 10
-2.070912
 20
3.281987
 30
0.0
 10
-2.128483
 20
3.128010
 30
0.0
 10
-2.193029
 20
2.985974
 30
0.0
 10
-2.264047
 20
2.856881
 30
0.0
 10
-2.341035
 20
2.741739
 30
0.0
 10
-2.423490
 20
2.641555
 30
0.0
 10
-2.510910
 20
2.557330
 30
0.0
 10
-2.602792
 20
2.490070
 30
0.0
 10
-2.698632
 20
2.440784
 30
0.0
 10
-2.797929
 20
2.410476
 30
0.0
 10
-2.900179
 20
2.400157
 30
0.0
 10
-3.002430
 20
2.410476
 30
0.0
 10
-3.101727
 20
2.440784
 30
0.0
 10
-3.197567
 20
2.490070
 30
0.0
 10
-3.289449
 20
2.557330
 30
0.0
 10
-3.376869
 20
2.641552
 30
0.0
 10
-3.459324
 20
2.741739
 30
0.0
 10
-3.536312
 20
2.856881
 30
0.0
 10
-3.607330
 20
2.985974
 30
0.0
 10
-3.671876
 20
3.128010
 30
0.0
 10
-3.729447
 20
3.281987
 30
0.0
 10
-3.779540
 20
3.446896
 30
0.0
 10
-3.821652
 20
3.621736
 30
0.0
 10
-3.855281
 20
3.805499
 30
0.0
 10
-3.879924
 20
3.997179
 30
0.0
 10
-3.895079
 20
4.195773
 30
0.0
 10
-3.900241
 20
4.400275
 30
0.0
 10
-3.895079
 20
4.604777
 30
0.0
 10
-3.879924
 20
4.803370
 30
0.0
 10
-3.855281
 20
4.995050
 30
0.0
 10
-3.821652
 20
5.178814
 30
0.0
 10
-3.779539
 20
5.353653
 30
0.0
 10
-3.729447
 20
5.518563
 30
0.0
 10
-3.671876
 20
5.672540
 30
0.0
 10
-3.607330
 20
5.814576
 30
0.0
 10
-3.536312
 20
5.943666
 30
0.0
 10
-3.459324
 20
6.058808
 30
0.0
 10
-3.376868
 20
6.158995
 30
0.0
 10
-3.289449
 20
6.243219
 30
0.0
 10
-3.197567
 20
6.310477
 30
0.0
 10
-3.101727
 20
6.359763
 30
0.0
 10
-3.002430
 20
6.390071
 30
0.0
 10
-2.900180
 20
6.400390
 30
0.0
 10
-2.797929
 20
6.390071
 30
0.0
 10
-2.698633
 20
6.359763
 30
0.0
 10
-2.602792
 20
6.310477
 30
0.0
 10
-2.510911
 20
6.243219
 30
0.0
 10
-2.423491
 20
6.158995
 30
0.0
 10
-2.341036
 20
6.058808
 30
0.0
 10
-2.264048
 20
5.943666
 30
0.0
 10
-2.193029
 20
5.814576
 30
0.0
 10
-2.128484
 20
5.672540
 30
0.0
 10
-2.070913
 20
5.518563
 30
0.0
 10
-2.020820
 20
5.353653
 30
0.0
 10
-1.978708
 20
5.178814
 30
0.0
 10
-1.945079
 20
4.995050
 30
0.0
 10
-1.920436
 20
4.803370
 30
0.0
 10
-1.905280
 20
4.604777
 30
0.0
  0
LWPOLYLINE
  5
103
100
AcDbEntity
  8
Capa_1
 62
7
100
AcDbPolyline
 90
64
 70
1
 10
9.700603
 20
1.100069
 30
0.0
 10
9.648972
 20
0.077563
 30
0.0
 10
9.497427
 20
-0.915405
 30
0.0
 10
9.250994
 20
-1.873811
 30
0.0
 10
8.914706
 20
-2.792624
 30
0.0
 10
8.493582
 20
-3.666821
 30
0.0
 10
7.992654
 20
-4.491374
 30
0.0
 10
7.416947
 20
-5.261255
 30
0.0
 10
6.771488
 20
-5.971437
 30
0.0
 10
6.061307
 20
-6.616896
 30
0.0
 10
5.291425
 20
-7.192603
 30
0.0
 10
4.466872
 20
-7.693530
 30
0.0
 10
3.592676
 20
-8.114654
 30
0.0
 10
2.673862
 20
-8.450942
 30
0.0
 10
1.715457
 20
-8.697375
 30
0.0
 10
0.722489
 20
-8.848921
 30
0.0
 10
-0.300017
 20
-8.900552
 30
0.0
 10
-1.322523
 20
-8.848918
 30
0.0
 10
-2.315491
 20
-8.697375
 30
0.0
 10
-3.273896
 20
-8.450942
 30
0.0
 10
-4.192710
 20
-8.114654
 30
0.0
 10
-5.066907
 20
-7.693530
 30
0.0
 10
-5.891459
 20
-7.192603
 30
0.0
 10
-6.661340
 20
-6.616896
 30
0.0
 10
-7.371523
 20
-5.971437
 30
0.0
 10
-8.016982
 20
-5.261255
 30
0.0
 10
-8.592689
 20
-4.491374
 30
0.0
 10
-9.093616
 20
-3.666821
 30
0.0
 10
-9.514739
 20
-2.792624
 30
0.0
 10
-9.851029
 20
-1.873811
 30
0.0
 10
-10.097460
 20
-0.915405
 30
0.0
 10
-10.249005
 20
0.077563
 30
0.0
 10
-10.300637
 20
1.100069
 30
0.0
 10
-10.249005
 20
2.122575
 30
0.0
 10
-10.097460
 20
3.115543
 30
0.0
 10
-9.851029
 20
4.073946
 30
0.0
 10
-9.514739
 20
4.992762
 30
0.0
 10
-9.093616
 20
5.866958
 30
0.0
 10
-8.592688
 20
6.691508
 30
0.0
 10
-8.016981
 20
7.461390
 30
0.0
 10
-7.371523
 20
8.171574
 30
0.0
 10
-6.661340
 20
8.817031
 30
0.0
 10
-5.891459
 20
9.392737
 30
0.0
 10
-5.066906
 20
9.893665
 30
0.0
 10
-4.192709
 20
10.314789
 30
0.0
 10
-3.273895
 20
10.651077
 30
0.0
 10
-2.315491
 20
10.897510
 30
0.0
 10
-1.322523
 20
11.049056
 30
0.0
 10
-0.300017
 20
11.100686
 30
0.0
 10
0.722489
 20
11.049056
 30
0.0
 10
1.715457
 20
10.897510
 30
0.0
 10
2.673860
 20
10.651077
 30
0.0
 10
3.592676
 20
10.314789
 30
0.0
 10
4.466872
 20
9.893665
 30
0.0
 10
5.291425
 20
9.392737
 30
0.0
 10
6.061304
 20
8.817031
 30
0.0
 10
6.771488
 20
8.171574
 30
0.0
 10
7.416947
 20
7.461390
 30
0.0
 10
7.992654
 20
6.691508
 30
0.0
 10
8.493582
 20
5.866958
 30
0.0
 10
8.914703
 20
4.992762
 30
0.0
 10
9.250994
 20
4.073946
 30
0.0
 10
9.497427
 20
3.115543
 30
0.0
 10
9.648972
 20
2.122575
 30
0.0
  0
ENDSEC
  0
SECTION
  2
OBJECTS
  0
DICTIONARY
  5
C
330
0
100
AcDbDictionary
  3
ACAD_GROUP
350
D
  3
ACAD_MLINESTYLE
350
17
  0
DICTIONARY
  5
D
330
C
100
AcDbDictionary
  0
DICTIONARY
  5
1A
330
C
100
AcDbDictionary
  0
DICTIONARY
  5
17
330
C
100
AcDbDictionary
  3
STANDARD
350
18
  0
DICTIONARY
  5
19
330
C
100
AcDbDictionary
  0
ENDSEC
  0
EOF
