  0
SECTION
  2
HEADER
  9
$ACADVER
  1
AC1014
  9
$HANDSEED
  5
FFFF
  9
$MEASUREMENT
 70
     1
  0
ENDSEC
  0
SECTION
  2
TABLES
  0
TABLE
  2
VPORT
  5
8
330
0
100
AcDbSymbolTable
 70
     4
  0
VPORT
  5
2E
330
8
100
AcDbSymbolTableRecord
100
AcDbViewportTableRecord
  2
*ACTIVE
 70
     0
 10
0.0
 20
0.0
 11
1.0
 21
1.0
 12
210.0
 22
148.5
 13
0.0
 23
0.0
 14
10.0
 24
10.0
 15
10.0
 25
10.0
 16
0.0
 26
0.0
 36
1.0
 17
0.0
 27
0.0
 37
0.0
 40
341.0
 41
1.24
 42
50.0
 43
0.0
 44
0.0
 50
0.0
 51
0.0
 71
     0
 72
   100
 73
     1
 74
     3
 75
     0
 76
     0
 77
     0
 78
     0
  0
ENDTAB
  0
TABLE
  2
LTYPE
  5
5
330
0
100
AcDbSymbolTable
 70
     1
  0
LTYPE
  5
14
330
5
100
AcDbSymbolTableRecord
100
AcDbLinetypeTableRecord
  2
BYBLOCK
 70
     0
  3

 72
    65
 73
     0
 40
0.0
  0
LTYPE
  5
15
330
5
100
AcDbSymbolTableRecord
100
AcDbLinetypeTableRecord
  2
BYLAYER
 70
     0
  3

 72
    65
 73
     0
 40
0.0
  0
LTYPE
  5
16
330
5
100
AcDbSymbolTableRecord
100
AcDbLinetypeTableRecord
  2
CONTINUOUS
 70
     0
  3
Solid line
 72
    65
 73
     0
 40
0.0
  0
ENDTAB
  0
TABLE
  2
LAYER
  5
2
100
AcDbSymbolTable
 70
2
  0
LAYER
  5
50
100
AcDbSymbolTableRecord
100
AcDbLayerTableRecord
  2
0
 70
0
  6
CONTINUOUS
  0
LAYER
  5
51
100
AcDbSymbolTableRecord
100
AcDbLayerTableRecord
  2
Capa_1
 70
0
  6
CONTINUOUS
  0
ENDTAB
  0
TABLE
  2
STYLE
  5
3
330
0
100
AcDbSymbolTable
 70
     1
  0
STYLE
  5
11
330
3
100
AcDbSymbolTableRecord
100
AcDbTextStyleTableRecord
  2
STANDARD
 70
     0
 40
0.0
 41
1.0
 50
0.0
 71
     0
 42
2.5
  3
txt
  4

  0
ENDTAB
  0
TABLE
  2
VIEW
  5
6
330
0
100
AcDbSymbolTable
 70
     0
  0
ENDTAB
  0
TABLE
  2
UCS
  5
7
330
0
100
AcDbSymbolTable
 70
     0
  0
ENDTAB
  0
TABLE
  2
APPID
  5
9
330
0
100
AcDbSymbolTable
 70
     2
  0
APPID
  5
12
330
9
100
AcDbSymbolTableRecord
100
AcDbRegAppTableRecord
  2
ACAD
 70
     0
  0
ENDTAB
  0
TABLE
  2
DIMSTYLE
  5
A
330
0
100
AcDbSymbolTable
 70
     1
  0
DIMSTYLE
105
27
330
A
100
AcDbSymbolTableRecord
100
AcDbDimStyleTableRecord
  2
ISO-25
 70
     0
  3

  4

  5

  6

  7

 40
1.0
 41
2.5
 42
0.625
 43
3.75
 44
1.25
 45
0.0
 46
0.0
 47
0.0
 48
0.0
140
2.5
141
2.5
142
0.0
143
0.03937007874016
144
1.0
145
0.0
146
1.0
147
0.625
 71
     0
 72
     0
 73
     0
 74
     0
 75
     0
 76
     0
 77
     1
 78
     8
170
     0
171
     3
172
     1
173
     0
174
     0
175
     0
176
     0
177
     0
178
     0
270
     2
271
     2
272
     2
273
     2
274
     3
340
11
275
     0
280
     0
281
     0
282
     0
283
     0
284
     8
285
     0
286
     0
287
     3
288
     0
  0
ENDTAB
  0
TABLE
  2
BLOCK_RECORD
  5
1
330
0
100
AcDbSymbolTable
 70
     1
  0
BLOCK_RECORD
  5
1F
330
1
100
AcDbSymbolTableRecord
100
AcDbBlockTableRecord
  2
*MODEL_SPACE
  0
BLOCK_RECORD
  5
1B
330
1
100
AcDbSymbolTableRecord
100
AcDbBlockTableRecord
  2
*PAPER_SPACE
  0
ENDTAB
  0
ENDSEC
  0
SECTION
  2
BLOCKS
  0
BLOCK
  5
20
330
1F
100
AcDbEntity
  8
0
100
AcDbBlockBegin
  2
*MODEL_SPACE
 70
     0
 10
0.0
 20
0.0
 30
0.0
  3
*MODEL_SPACE
  1

  0
ENDBLK
  5
21
330
1F
100
AcDbEntity
  8
0
100
AcDbBlockEnd
  0
BLOCK
  5
1C
330
1B
100
AcDbEntity
 67
     1
  8
0
100
AcDbBlockBegin
  2
*PAPER_SPACE
  1

  0
ENDBLK
  5
1D
330
1B
100
AcDbEntity
 67
     1
  8
0
100
AcDbBlockEnd
  0
ENDSEC
  0
SECTION
  2
ENTITIES
  0
LWPOLYLINE
  5
100
100
AcDbEntity
  8
Capa_1
 62
7
100
AcDbPolyline
 90
288
 70
1
 10
-1.137460
 20
0.415211
 30
0.0
 10
-1.137233
 20
0.411797
 30
0.0
 10
-1.137005
 20
0.408384
 30
0.0
 10
-1.136778
 20
0.404971
 30
0.0
 10
-1.136551
 20
0.401558
 30
0.0
 10
-1.136323
 20
0.398145
 30
0.0
 10
-1.136096
 20
0.394732
 30
0.0
 10
-1.135869
 20
0.391319
 30
0.0
 10
-1.135641
 20
0.387906
 30
0.0
 10
-1.135414
 20
0.384492
 30
0.0
 10
-1.135187
 20
0.381079
 30
0.0
 10
-1.134959
 20
0.377666
 30
0.0
 10
-1.134732
 20
0.374253
 30
0.0
 10
-1.134504
 20
0.370840
 30
0.0
 10
-1.134277
 20
0.367427
 30
0.0
 10
-1.134050
 20
0.364014
 30
0.0
 10
-1.133822
 20
0.360601
 30
0.0
 10
-1.127456
 20
0.360373
 30
0.0
 10
-1.121091
 20
0.360146
 30
0.0
 10
-1.114725
 20
0.359918
 30
0.0
 10
-1.108359
 20
0.359690
 30
0.0
 10
-1.101993
 20
0.359463
 30
0.0
 10
-1.095627
 20
0.359235
 30
0.0
 10
-1.089261
 20
0.359008
 30
0.0
 10
-1.082895
 20
0.358780
 30
0.0
 10
-1.076529
 20
0.358555
 30
0.0
 10
-1.070164
 20
0.358328
 30
0.0
 10
-1.063798
 20
0.358100
 30
0.0
 10
-1.057432
 20
0.357873
 30
0.0
 10
-1.051066
 20
0.357645
 30
0.0
 10
-1.044700
 20
0.357418
 30
0.0
 10
-1.038334
 20
0.357190
 30
0.0
 10
-1.031968
 20
0.356963
 30
0.0
 10
-1.028558
 20
0.343548
 30
0.0
 10
-1.025147
 20
0.330134
 30
0.0
 10
-1.021737
 20
0.316719
 30
0.0
 10
-1.018326
 20
0.303305
 30
0.0
 10
-1.014916
 20
0.289891
 30
0.0
 10
-1.011505
 20
0.276476
 30
0.0
 10
-1.008095
 20
0.263062
 30
0.0
 10
-1.004684
 20
0.249648
 30
0.0
 10
-1.001274
 20
0.236233
 30
0.0
 10
-0.997864
 20
0.222819
 30
0.0
 10
-0.994453
 20
0.209404
 30
0.0
 10
-0.991043
 20
0.195990
 30
0.0
 10
-0.987632
 20
0.182576
 30
0.0
 10
-0.984222
 20
0.169161
 30
0.0
 10
-0.980811
 20
0.155747
 30
0.0
 10
-0.977401
 20
0.142333
 30
0.0
 10
-1.006047
 20
0.118891
 30
0.0
 10
-1.034693
 20
0.095448
 30
0.0
 10
-1.063339
 20
0.072006
 30
0.0
 10
-1.091985
 20
0.048564
 30
0.0
 10
-1.120630
 20
0.025122
 30
0.0
 10
-1.149276
 20
0.001680
 30
0.0
 10
-1.177922
 20
-0.021762
 30
0.0
 10
-1.206568
 20
-0.045204
 30
0.0
 10
-1.235214
 20
-0.068646
 30
0.0
 10
-1.263860
 20
-0.092088
 30
0.0
 10
-1.292506
 20
-0.115530
 30
0.0
 10
-1.321152
 20
-0.138972
 30
0.0
 10
-1.349798
 20
-0.162414
 30
0.0
 10
-1.378444
 20
-0.185857
 30
0.0
 10
-1.407090
 20
-0.209299
 30
0.0
 10
-1.435736
 20
-0.232741
 30
0.0
 10
-1.419824
 20
-0.232714
 30
0.0
 10
-1.403912
 20
-0.232685
 30
0.0
 10
-1.388000
 20
-0.232659
 30
0.0
 10
-1.372088
 20
-0.232632
 30
0.0
 10
-1.356176
 20
-0.232603
 30
0.0
 10
-1.340263
 20
-0.232577
 30
0.0
 10
-1.324351
 20
-0.232550
 30
0.0
 10
-1.308439
 20
-0.232524
 30
0.0
 10
-1.292527
 20
-0.232495
 30
0.0
 10
-1.276615
 20
-0.232468
 30
0.0
 10
-1.260703
 20
-0.232442
 30
0.0
 10
-1.244791
 20
-0.232413
 30
0.0
 10
-1.228879
 20
-0.232386
 30
0.0
 10
-1.212967
 20
-0.232360
 30
0.0
 10
-1.197055
 20
-0.232333
 30
0.0
 10
-1.181143
 20
-0.232304
 30
0.0
 10
-1.166363
 20
-0.217990
 30
0.0
 10
-1.151584
 20
-0.203676
 30
0.0
 10
-1.136804
 20
-0.189362
 30
0.0
 10
-1.122025
 20
-0.175048
 30
0.0
 10
-1.107245
 20
-0.160734
 30
0.0
 10
-1.092465
 20
-0.146420
 30
0.0
 10
-1.077686
 20
-0.132106
 30
0.0
 10
-1.062906
 20
-0.117792
 30
0.0
 10
-1.048126
 20
-0.103479
 30
0.0
 10
-1.033347
 20
-0.089165
 30
0.0
 10
-1.018567
 20
-0.074851
 30
0.0
 10
-1.003788
 20
-0.060537
 30
0.0
 10
-0.989008
 20
-0.046223
 30
0.0
 10
-0.974228
 20
-0.031909
 30
0.0
 10
-0.959449
 20
-0.017595
 30
0.0
 10
-0.944669
 20
-0.003281
 30
0.0
 10
-0.939893
 20
-0.017833
 30
0.0
 10
-0.935118
 20
-0.032385
 30
0.0
 10
-0.930342
 20
-0.046937
 30
0.0
 10
-0.925566
 20
-0.061489
 30
0.0
 10
-0.920790
 20
-0.076041
 30
0.0
 10
-0.916015
 20
-0.090593
 30
0.0
 10
-0.911239
 20
-0.105145
 30
0.0
 10
-0.906463
 20
-0.119697
 30
0.0
 10
-0.901687
 20
-0.134250
 30
0.0
 10
-0.896912
 20
-0.148802
 30
0.0
 10
-0.892136
 20
-0.163354
 30
0.0
 10
-0.887360
 20
-0.177906
 30
0.0
 10
-0.882585
 20
-0.192458
 30
0.0
 10
-0.877809
 20
-0.207010
 30
0.0
 10
-0.873033
 20
-0.221562
 30
0.0
 10
-0.868257
 20
-0.236114
 30
0.0
 10
-0.862347
 20
-0.222250
 30
0.0
 10
-0.856436
 20
-0.208386
 30
0.0
 10
-0.850525
 20
-0.194522
 30
0.0
 10
-0.844614
 20
-0.180658
 30
0.0
 10
-0.838703
 20
-0.166793
 30
0.0
 10
-0.832793
 20
-0.152929
 30
0.0
 10
-0.826882
 20
-0.139065
 30
0.0
 10
-0.820971
 20
-0.125201
 30
0.0
 10
-0.815060
 20
-0.111337
 30
0.0
 10
-0.809149
 20
-0.097473
 30
0.0
 10
-0.803239
 20
-0.083608
 30
0.0
 10
-0.797328
 20
-0.069744
 30
0.0
 10
-0.791417
 20
-0.055880
 30
0.0
 10
-0.785506
 20
-0.042016
 30
0.0
 10
-0.779596
 20
-0.028152
 30
0.0
 10
-0.773685
 20
-0.014288
 30
0.0
 10
-0.776413
 20
-0.005636
 30
0.0
 10
-0.779140
 20
0.003016
 30
0.0
 10
-0.781868
 20
0.011642
 30
0.0
 10
-0.784596
 20
0.020294
 30
0.0
 10
-0.787324
 20
0.028919
 30
0.0
 10
-0.790052
 20
0.037571
 30
0.0
 10
-0.792780
 20
0.046223
 30
0.0
 10
-0.795508
 20
0.054848
 30
0.0
 10
-0.798235
 20
0.063500
 30
0.0
 10
-0.800963
 20
0.072152
 30
0.0
 10
-0.803691
 20
0.080804
 30
0.0
 10
-0.806419
 20
0.089456
 30
0.0
 10
-0.809147
 20
0.098081
 30
0.0
 10
-0.811875
 20
0.106733
 30
0.0
 10
-0.814603
 20
0.115358
 30
0.0
 10
-0.817330
 20
0.124010
 30
0.0
 10
-0.804144
 20
0.136075
 30
0.0
 10
-0.790957
 20
0.148114
 30
0.0
 10
-0.777770
 20
0.160152
 30
0.0
 10
-0.764583
 20
0.172217
 30
0.0
 10
-0.751396
 20
0.184256
 30
0.0
 10
-0.738209
 20
0.196294
 30
0.0
 10
-0.725023
 20
0.208359
 30
0.0
 10
-0.711836
 20
0.220398
 30
0.0
 10
-0.698649
 20
0.232436
 30
0.0
 10
-0.685462
 20
0.244501
 30
0.0
 10
-0.672275
 20
0.256540
 30
0.0
 10
-0.659088
 20
0.268579
 30
0.0
 10
-0.645902
 20
0.280644
 30
0.0
 10
-0.632715
 20
0.292682
 30
0.0
 10
-0.619528
 20
0.304721
 30
0.0
 10
-0.606341
 20
0.316786
 30
0.0
 10
-0.605309
 20
0.317315
 30
0.0
 10
-0.602317
 20
0.319167
 30
0.0
 10
-0.597544
 20
0.321945
 30
0.0
 10
-0.591167
 20
0.325517
 30
0.0
 10
-0.583362
 20
0.329644
 30
0.0
 10
-0.574305
 20
0.334169
 30
0.0
 10
-0.564172
 20
0.338852
 30
0.0
 10
-0.553139
 20
0.343535
 30
0.0
 10
-0.541381
 20
0.348006
 30
0.0
 10
-0.529072
 20
0.352055
 30
0.0
 10
-0.516391
 20
0.355494
 30
0.0
 10
-0.503513
 20
0.358140
 30
0.0
 10
-0.490615
 20
0.359727
 30
0.0
 10
-0.477870
 20
0.360257
 30
0.0
 10
-0.465456
 20
0.359198
 30
0.0
 10
-0.453547
 20
0.356552
 30
0.0
 10
-0.440577
 20
0.353510
 30
0.0
 10
-0.425160
 20
0.351129
 30
0.0
 10
-0.407750
 20
0.349541
 30
0.0
 10
-0.388801
 20
0.348483
 30
0.0
 10
-0.368764
 20
0.347954
 30
0.0
 10
-0.348092
 20
0.347713
 30
0.0
 10
-0.327240
 20
0.347821
 30
0.0
 10
-0.306661
 20
0.348086
 30
0.0
 10
-0.286806
 20
0.348615
 30
0.0
 10
-0.268129
 20
0.349409
 30
0.0
 10
-0.251082
 20
0.350202
 30
0.0
 10
-0.236120
 20
0.350996
 30
0.0
 10
-0.223693
 20
0.351790
 30
0.0
 10
-0.214255
 20
0.352319
 30
0.0
 10
-0.208260
 20
0.352848
 30
0.0
 10
-0.206169
 20
0.353007
 30
0.0
 10
-0.202759
 20
0.361659
 30
0.0
 10
-0.199348
 20
0.370311
 30
0.0
 10
-0.195938
 20
0.378963
 30
0.0
 10
-0.192527
 20
0.387588
 30
0.0
 10
-0.189117
 20
0.396240
 30
0.0
 10
-0.185706
 20
0.404892
 30
0.0
 10
-0.182296
 20
0.413517
 30
0.0
 10
-0.178886
 20
0.422169
 30
0.0
 10
-0.175475
 20
0.430821
 30
0.0
 10
-0.172065
 20
0.439446
 30
0.0
 10
-0.168654
 20
0.448098
 30
0.0
 10
-0.165244
 20
0.456750
 30
0.0
 10
-0.161833
 20
0.465402
 30
0.0
 10
-0.158423
 20
0.474054
 30
0.0
 10
-0.155012
 20
0.482706
 30
0.0
 10
-0.151602
 20
0.491358
 30
0.0
 10
-0.171837
 20
0.491130
 30
0.0
 10
-0.192072
 20
0.490903
 30
0.0
 10
-0.212308
 20
0.490675
 30
0.0
 10
-0.232543
 20
0.490448
 30
0.0
 10
-0.252778
 20
0.490220
 30
0.0
 10
-0.273014
 20
0.489992
 30
0.0
 10
-0.293249
 20
0.489765
 30
0.0
 10
-0.313484
 20
0.489540
 30
0.0
 10
-0.333720
 20
0.489312
 30
0.0
 10
-0.353955
 20
0.489085
 30
0.0
 10
-0.374190
 20
0.488857
 30
0.0
 10
-0.394426
 20
0.488630
 30
0.0
 10
-0.414661
 20
0.488402
 30
0.0
 10
-0.434896
 20
0.488175
 30
0.0
 10
-0.455132
 20
0.487947
 30
0.0
 10
-0.475367
 20
0.487720
 30
0.0
 10
-0.476399
 20
0.487455
 30
0.0
 10
-0.479428
 20
0.486132
 30
0.0
 10
-0.484326
 20
0.484016
 30
0.0
 10
-0.490964
 20
0.481158
 30
0.0
 10
-0.499219
 20
0.477454
 30
0.0
 10
-0.508966
 20
0.472877
 30
0.0
 10
-0.520079
 20
0.467400
 30
0.0
 10
-0.532432
 20
0.460997
 30
0.0
 10
-0.545902
 20
0.453668
 30
0.0
 10
-0.560362
 20
0.445386
 30
0.0
 10
-0.575686
 20
0.436152
 30
0.0
 10
-0.591749
 20
0.425939
 30
0.0
 10
-0.608429
 20
0.414721
 30
0.0
 10
-0.625597
 20
0.402471
 30
0.0
 10
-0.643129
 20
0.389189
 30
0.0
 10
-0.660898
 20
0.374848
 30
0.0
 10
-0.677411
 20
0.361355
 30
0.0
 10
-0.694095
 20
0.348178
 30
0.0
 10
-0.710780
 20
0.335399
 30
0.0
 10
-0.727293
 20
0.323122
 30
0.0
 10
-0.743464
 20
0.311375
 30
0.0
 10
-0.759125
 20
0.300262
 30
0.0
 10
-0.774103
 20
0.289864
 30
0.0
 10
-0.788229
 20
0.280233
 30
0.0
 10
-0.801331
 20
0.271476
 30
0.0
 10
-0.813240
 20
0.263644
 30
0.0
 10
-0.823784
 20
0.256791
 30
0.0
 10
-0.832793
 20
0.251023
 30
0.0
 10
-0.840098
 20
0.246420
 30
0.0
 10
-0.845527
 20
0.243033
 30
0.0
 10
-0.848908
 20
0.240916
 30
0.0
 10
-0.850073
 20
0.240123
 30
0.0
 10
-0.853256
 20
0.251050
 30
0.0
 10
-0.856438
 20
0.261951
 30
0.0
 10
-0.859621
 20
0.272852
 30
0.0
 10
-0.862804
 20
0.283779
 30
0.0
 10
-0.865987
 20
0.294680
 30
0.0
 10
-0.869170
 20
0.305581
 30
0.0
 10
-0.872353
 20
0.316508
 30
0.0
 10
-0.875536
 20
0.327409
 30
0.0
 10
-0.878719
 20
0.338309
 30
0.0
 10
-0.881902
 20
0.349237
 30
0.0
 10
-0.885085
 20
0.360138
 30
0.0
 10
-0.888268
 20
0.371038
 30
0.0
 10
-0.891451
 20
0.381966
 30
0.0
 10
-0.894634
 20
0.392867
 30
0.0
 10
-0.897817
 20
0.403767
 30
0.0
 10
-0.901000
 20
0.414695
 30
0.0
 10
-0.915779
 20
0.414695
 30
0.0
 10
-0.930559
 20
0.414697
 30
0.0
 10
-0.945338
 20
0.414697
 30
0.0
 10
-0.960118
 20
0.414697
 30
0.0
 10
-0.974898
 20
0.414697
 30
0.0
 10
-0.989677
 20
0.414697
 30
0.0
 10
-1.004457
 20
0.414697
 30
0.0
 10
-1.019237
 20
0.414697
 30
0.0
 10
-1.034016
 20
0.414697
 30
0.0
 10
-1.048796
 20
0.414697
 30
0.0
 10
-1.063575
 20
0.414697
 30
0.0
 10
-1.078355
 20
0.414697
 30
0.0
 10
-1.093135
 20
0.414697
 30
0.0
 10
-1.107914
 20
0.414697
 30
0.0
 10
-1.122694
 20
0.414697
 30
0.0
  0
LWPOLYLINE
  5
101
100
AcDbEntity
  8
Capa_1
 62
7
100
AcDbPolyline
 90
208
 70
1
 10
0.430520
 20
0.295156
 30
0.0
 10
0.438934
 20
0.294627
 30
0.0
 10
0.447347
 20
0.294098
 30
0.0
 10
0.455761
 20
0.293568
 30
0.0
 10
0.464175
 20
0.293039
 30
0.0
 10
0.472589
 20
0.292510
 30
0.0
 10
0.481002
 20
0.291981
 30
0.0
 10
0.489416
 20
0.291452
 30
0.0
 10
0.497830
 20
0.290923
 30
0.0
 10
0.506244
 20
0.290393
 30
0.0
 10
0.514657
 20
0.289864
 30
0.0
 10
0.523071
 20
0.289335
 30
0.0
 10
0.531485
 20
0.288806
 30
0.0
 10
0.539899
 20
0.288277
 30
0.0
 10
0.548312
 20
0.287748
 30
0.0
 10
0.556726
 20
0.287218
 30
0.0
 10
0.565140
 20
0.286689
 30
0.0
 10
0.565140
 20
0.269174
 30
0.0
 10
0.565140
 20
0.251658
 30
0.0
 10
0.565140
 20
0.234143
 30
0.0
 10
0.565140
 20
0.216628
 30
0.0
 10
0.565140
 20
0.199112
 30
0.0
 10
0.565140
 20
0.181597
 30
0.0
 10
0.565140
 20
0.164081
 30
0.0
 10
0.565140
 20
0.146566
 30
0.0
 10
0.565140
 20
0.129051
 30
0.0
 10
0.565140
 20
0.111535
 30
0.0
 10
0.565140
 20
0.094020
 30
0.0
 10
0.565140
 20
0.076504
 30
0.0
 10
0.565140
 20
0.058989
 30
0.0
 10
0.565140
 20
0.041473
 30
0.0
 10
0.565140
 20
0.023958
 30
0.0
 10
0.565140
 20
0.006443
 30
0.0
 10
0.575371
 20
0.021683
 30
0.0
 10
0.585603
 20
0.036923
 30
0.0
 10
0.595834
 20
0.052163
 30
0.0
 10
0.606066
 20
0.067403
 30
0.0
 10
0.616297
 20
0.082643
 30
0.0
 10
0.626528
 20
0.097883
 30
0.0
 10
0.636760
 20
0.113123
 30
0.0
 10
0.646991
 20
0.128363
 30
0.0
 10
0.657223
 20
0.143603
 30
0.0
 10
0.667454
 20
0.158843
 30
0.0
 10
0.677686
 20
0.174083
 30
0.0
 10
0.687917
 20
0.189323
 30
0.0
 10
0.698148
 20
0.204563
 30
0.0
 10
0.708380
 20
0.219803
 30
0.0
 10
0.718611
 20
0.235043
 30
0.0
 10
0.728843
 20
0.250283
 30
0.0
 10
0.738167
 20
0.250055
 30
0.0
 10
0.747488
 20
0.249828
 30
0.0
 10
0.756809
 20
0.249600
 30
0.0
 10
0.766130
 20
0.249372
 30
0.0
 10
0.775452
 20
0.249145
 30
0.0
 10
0.784776
 20
0.248917
 30
0.0
 10
0.794097
 20
0.248690
 30
0.0
 10
0.803418
 20
0.248462
 30
0.0
 10
0.812739
 20
0.248235
 30
0.0
 10
0.822061
 20
0.248010
 30
0.0
 10
0.831385
 20
0.247782
 30
0.0
 10
0.840706
 20
0.247555
 30
0.0
 10
0.850027
 20
0.247327
 30
0.0
 10
0.859348
 20
0.247100
 30
0.0
 10
0.868670
 20
0.246872
 30
0.0
 10
0.877994
 20
0.246645
 30
0.0
 10
0.877094
 20
0.232331
 30
0.0
 10
0.876195
 20
0.218017
 30
0.0
 10
0.875295
 20
0.203703
 30
0.0
 10
0.874395
 20
0.189389
 30
0.0
 10
0.873496
 20
0.175075
 30
0.0
 10
0.872596
 20
0.160761
 30
0.0
 10
0.871697
 20
0.146447
 30
0.0
 10
0.870797
 20
0.132133
 30
0.0
 10
0.869897
 20
0.117819
 30
0.0
 10
0.868998
 20
0.103505
 30
0.0
 10
0.868098
 20
0.089191
 30
0.0
 10
0.867199
 20
0.074877
 30
0.0
 10
0.866299
 20
0.060563
 30
0.0
 10
0.865400
 20
0.046249
 30
0.0
 10
0.864500
 20
0.031935
 30
0.0
 10
0.863600
 20
0.017621
 30
0.0
 10
0.874969
 20
0.035137
 30
0.0
 10
0.886339
 20
0.052652
 30
0.0
 10
0.897708
 20
0.070167
 30
0.0
 10
0.909077
 20
0.087683
 30
0.0
 10
0.920446
 20
0.105198
 30
0.0
 10
0.931815
 20
0.122714
 30
0.0
 10
0.943184
 20
0.140229
 30
0.0
 10
0.954554
 20
0.157745
 30
0.0
 10
0.965923
 20
0.175260
 30
0.0
 10
0.977292
 20
0.192775
 30
0.0
 10
0.988661
 20
0.210291
 30
0.0
 10
1.000030
 20
0.227806
 30
0.0
 10
1.011399
 20
0.245322
 30
0.0
 10
1.022768
 20
0.262837
 30
0.0
 10
1.034138
 20
0.280352
 30
0.0
 10
1.045507
 20
0.297868
 30
0.0
 10
1.055283
 20
0.297640
 30
0.0
 10
1.065059
 20
0.297413
 30
0.0
 10
1.074836
 20
0.297185
 30
0.0
 10
1.084612
 20
0.296958
 30
0.0
 10
1.094388
 20
0.296730
 30
0.0
 10
1.104165
 20
0.296505
 30
0.0
 10
1.113941
 20
0.296278
 30
0.0
 10
1.123718
 20
0.296050
 30
0.0
 10
1.133494
 20
0.295823
 30
0.0
 10
1.143270
 20
0.295595
 30
0.0
 10
1.153047
 20
0.295368
 30
0.0
 10
1.162823
 20
0.295140
 30
0.0
 10
1.172599
 20
0.294913
 30
0.0
 10
1.182376
 20
0.294685
 30
0.0
 10
1.192152
 20
0.294457
 30
0.0
 10
1.201928
 20
0.294230
 30
0.0
 10
1.180555
 20
0.261488
 30
0.0
 10
1.159182
 20
0.228746
 30
0.0
 10
1.137809
 20
0.196006
 30
0.0
 10
1.116436
 20
0.163264
 30
0.0
 10
1.095063
 20
0.130522
 30
0.0
 10
1.073690
 20
0.097779
 30
0.0
 10
1.052317
 20
0.065037
 30
0.0
 10
1.030944
 20
0.032295
 30
0.0
 10
1.009571
 20
-0.000447
 30
0.0
 10
0.988198
 20
-0.033189
 30
0.0
 10
0.966825
 20
-0.065932
 30
0.0
 10
0.945452
 20
-0.098674
 30
0.0
 10
0.924079
 20
-0.131416
 30
0.0
 10
0.902706
 20
-0.164158
 30
0.0
 10
0.881333
 20
-0.196900
 30
0.0
 10
0.859960
 20
-0.229642
 30
0.0
 10
0.851093
 20
-0.229415
 30
0.0
 10
0.842225
 20
-0.229187
 30
0.0
 10
0.833358
 20
-0.228960
 30
0.0
 10
0.824490
 20
-0.228732
 30
0.0
 10
0.815623
 20
-0.228505
 30
0.0
 10
0.806755
 20
-0.228277
 30
0.0
 10
0.797888
 20
-0.228050
 30
0.0
 10
0.789020
 20
-0.227822
 30
0.0
 10
0.780153
 20
-0.227597
 30
0.0
 10
0.771285
 20
-0.227370
 30
0.0
 10
0.762416
 20
-0.227142
 30
0.0
 10
0.753547
 20
-0.226915
 30
0.0
 10
0.744678
 20
-0.226687
 30
0.0
 10
0.735809
 20
-0.226460
 30
0.0
 10
0.726940
 20
-0.226232
 30
0.0
 10
0.718072
 20
-0.226004
 30
0.0
 10
0.719659
 20
-0.207351
 30
0.0
 10
0.721247
 20
-0.188698
 30
0.0
 10
0.722834
 20
-0.170045
 30
0.0
 10
0.724422
 20
-0.151392
 30
0.0
 10
0.726009
 20
-0.132739
 30
0.0
 10
0.727597
 20
-0.114086
 30
0.0
 10
0.729184
 20
-0.095433
 30
0.0
 10
0.730772
 20
-0.076779
 30
0.0
 10
0.732359
 20
-0.058126
 30
0.0
 10
0.733947
 20
-0.039473
 30
0.0
 10
0.735534
 20
-0.020820
 30
0.0
 10
0.737122
 20
-0.002167
 30
0.0
 10
0.738709
 20
0.016486
 30
0.0
 10
0.740297
 20
0.035139
 30
0.0
 10
0.741884
 20
0.053792
 30
0.0
 10
0.743472
 20
0.072446
 30
0.0
 10
0.730967
 20
0.053581
 30
0.0
 10
0.718461
 20
0.034716
 30
0.0
 10
0.705956
 20
0.015851
 30
0.0
 10
0.693449
 20
-0.003014
 30
0.0
 10
0.680945
 20
-0.021878
 30
0.0
 10
0.668441
 20
-0.040743
 30
0.0
 10
0.655934
 20
-0.059608
 30
0.0
 10
0.643430
 20
-0.078473
 30
0.0
 10
0.630923
 20
-0.097338
 30
0.0
 10
0.618419
 20
-0.116202
 30
0.0
 10
0.605912
 20
-0.135067
 30
0.0
 10
0.593408
 20
-0.153932
 30
0.0
 10
0.580901
 20
-0.172797
 30
0.0
 10
0.568397
 20
-0.191662
 30
0.0
 10
0.555890
 20
-0.210526
 30
0.0
 10
0.543386
 20
-0.229391
 30
0.0
 10
0.536565
 20
-0.228862
 30
0.0
 10
0.529744
 20
-0.228333
 30
0.0
 10
0.522923
 20
-0.227804
 30
0.0
 10
0.516102
 20
-0.227274
 30
0.0
 10
0.509281
 20
-0.226745
 30
0.0
 10
0.502460
 20
-0.226216
 30
0.0
 10
0.495639
 20
-0.225687
 30
0.0
 10
0.488818
 20
-0.225158
 30
0.0
 10
0.481997
 20
-0.224629
 30
0.0
 10
0.475176
 20
-0.224099
 30
0.0
 10
0.468355
 20
-0.223570
 30
0.0
 10
0.461534
 20
-0.223041
 30
0.0
 10
0.454713
 20
-0.222512
 30
0.0
 10
0.447892
 20
-0.221983
 30
0.0
 10
0.441071
 20
-0.221454
 30
0.0
 10
0.434250
 20
-0.220924
 30
0.0
 10
0.434023
 20
-0.188637
 30
0.0
 10
0.433796
 20
-0.156350
 30
0.0
 10
0.433568
 20
-0.124063
 30
0.0
 10
0.433341
 20
-0.091776
 30
0.0
 10
0.433114
 20
-0.059489
 30
0.0
 10
0.432886
 20
-0.027199
 30
0.0
 10
0.432659
 20
0.005088
 30
0.0
 10
0.432432
 20
0.037375
 30
0.0
 10
0.432204
 20
0.069662
 30
0.0
 10
0.431977
 20
0.101949
 30
0.0
 10
0.431750
 20
0.134236
 30
0.0
 10
0.431523
 20
0.166523
 30
0.0
 10
0.431295
 20
0.198811
 30
0.0
 10
0.431068
 20
0.231098
 30
0.0
 10
0.430841
 20
0.263385
 30
0.0
  0
LWPOLYLINE
  5
102
100
AcDbEntity
  8
Capa_1
 62
7
100
AcDbPolyline
 90
112
 70
1
 10
0.219516
 20
0.320609
 30
0.0
 10
0.216730
 20
0.320080
 30
0.0
 10
0.208816
 20
0.318492
 30
0.0
 10
0.196447
 20
0.315608
 30
0.0
 10
0.180294
 20
0.311534
 30
0.0
 10
0.161029
 20
0.306216
 30
0.0
 10
0.139323
 20
0.299627
 30
0.0
 10
0.115849
 20
0.291743
 30
0.0
 10
0.091277
 20
0.282535
 30
0.0
 10
0.066280
 20
0.271952
 30
0.0
 10
0.041525
 20
0.259966
 30
0.0
 10
0.017689
 20
0.246552
 30
0.0
 10
-0.004560
 20
0.231682
 30
0.0
 10
-0.024549
 20
0.215331
 30
0.0
 10
-0.041607
 20
0.197445
 30
0.0
 10
-0.055064
 20
0.177998
 30
0.0
 10
-0.064245
 20
0.156964
 30
0.0
 10
-0.073172
 20
0.145190
 30
0.0
 10
-0.082115
 20
0.133019
 30
0.0
 10
-0.090920
 20
0.120372
 30
0.0
 10
-0.099432
 20
0.107196
 30
0.0
 10
-0.107496
 20
0.093411
 30
0.0
 10
-0.114957
 20
0.078965
 30
0.0
 10
-0.121662
 20
0.063804
 30
0.0
 10
-0.127456
 20
0.047850
 30
0.0
 10
-0.132184
 20
0.031049
 30
0.0
 10
-0.135693
 20
0.013322
 30
0.0
 10
-0.137836
 20
-0.005384
 30
0.0
 10
-0.138444
 20
-0.025122
 30
0.0
 10
-0.137360
 20
-0.045971
 30
0.0
 10
-0.134441
 20
-0.068011
 30
0.0
 10
-0.129528
 20
-0.091268
 30
0.0
 10
-0.122469
 20
-0.115821
 30
0.0
 10
-0.112618
 20
-0.139316
 30
0.0
 10
-0.099773
 20
-0.159478
 30
0.0
 10
-0.084435
 20
-0.176543
 30
0.0
 10
-0.067102
 20
-0.190804
 30
0.0
 10
-0.048277
 20
-0.202472
 30
0.0
 10
-0.028462
 20
-0.211812
 30
0.0
 10
-0.008156
 20
-0.219088
 30
0.0
 10
0.012140
 20
-0.224512
 30
0.0
 10
0.031923
 20
-0.228375
 30
0.0
 10
0.050696
 20
-0.231021
 30
0.0
 10
0.067952
 20
-0.232344
 30
0.0
 10
0.083194
 20
-0.232873
 30
0.0
 10
0.095921
 20
-0.232929
 30
0.0
 10
0.105634
 20
-0.232664
 30
0.0
 10
0.111828
 20
-0.232399
 30
0.0
 10
0.113997
 20
-0.232227
 30
0.0
 10
0.116590
 20
-0.231434
 30
0.0
 10
0.123927
 20
-0.228788
 30
0.0
 10
0.135399
 20
-0.224422
 30
0.0
 10
0.150388
 20
-0.218390
 30
0.0
 10
0.168276
 20
-0.210717
 30
0.0
 10
0.188446
 20
-0.201430
 30
0.0
 10
0.210276
 20
-0.190582
 30
0.0
 10
0.233152
 20
-0.178200
 30
0.0
 10
0.256454
 20
-0.164335
 30
0.0
 10
0.279565
 20
-0.149016
 30
0.0
 10
0.301867
 20
-0.132268
 30
0.0
 10
0.322740
 20
-0.114144
 30
0.0
 10
0.341565
 20
-0.094671
 30
0.0
 10
0.357726
 20
-0.073901
 30
0.0
 10
0.370603
 20
-0.051861
 30
0.0
 10
0.379581
 20
-0.028578
 30
0.0
 10
0.386066
 20
-0.005929
 30
0.0
 10
0.391900
 20
0.014391
 30
0.0
 10
0.397117
 20
0.032462
 30
0.0
 10
0.401747
 20
0.048443
 30
0.0
 10
0.405825
 20
0.062439
 30
0.0
 10
0.409378
 20
0.074583
 30
0.0
 10
0.412442
 20
0.084982
 30
0.0
 10
0.415035
 20
0.093766
 30
0.0
 10
0.417204
 20
0.101042
 30
0.0
 10
0.418977
 20
0.106968
 30
0.0
 10
0.420406
 20
0.111652
 30
0.0
 10
0.421491
 20
0.115197
 30
0.0
 10
0.422284
 20
0.117843
 30
0.0
 10
0.422814
 20
0.119430
 30
0.0
 10
0.423105
 20
0.120224
 30
0.0
 10
0.423200
 20
0.120489
 30
0.0
 10
0.423012
 20
0.122076
 30
0.0
 10
0.422377
 20
0.126309
 30
0.0
 10
0.421187
 20
0.132977
 30
0.0
 10
0.419334
 20
0.141788
 30
0.0
 10
0.416715
 20
0.152397
 30
0.0
 10
0.413223
 20
0.164515
 30
0.0
 10
0.408749
 20
0.177824
 30
0.0
 10
0.403190
 20
0.191979
 30
0.0
 10
0.396435
 20
0.206690
 30
0.0
 10
0.388381
 20
0.221639
 30
0.0
 10
0.378919
 20
0.236535
 30
0.0
 10
0.367944
 20
0.251034
 30
0.0
 10
0.355350
 20
0.264819
 30
0.0
 10
0.341028
 20
0.277598
 30
0.0
 10
0.324873
 20
0.289055
 30
0.0
 10
0.306778
 20
0.298844
 30
0.0
 10
0.289011
 20
0.306888
 30
0.0
 10
0.273782
 20
0.313370
 30
0.0
 10
0.260897
 20
0.318423
 30
0.0
 10
0.250165
 20
0.322207
 30
0.0
 10
0.241394
 20
0.324853
 30
0.0
 10
0.234391
 20
0.326440
 30
0.0
 10
0.228967
 20
0.327234
 30
0.0
 10
0.224927
 20
0.327369
 30
0.0
 10
0.222080
 20
0.326840
 30
0.0
 10
0.220228
 20
0.326046
 30
0.0
 10
0.219196
 20
0.324988
 30
0.0
 10
0.218772
 20
0.323665
 30
0.0
 10
0.218783
 20
0.322342
 30
0.0
 10
0.219028
 20
0.321284
 30
0.0
 10
0.219319
 20
0.320490
 30
0.0
  0
LWPOLYLINE
  5
103
100
AcDbEntity
  8
Capa_1
 62
7
100
AcDbPolyline
 90
48
 70
1
 10
0.201326
 20
0.207830
 30
0.0
 10
0.198270
 20
0.207036
 30
0.0
 10
0.189742
 20
0.204655
 30
0.0
 10
0.176714
 20
0.200528
 30
0.0
 10
0.160151
 20
0.194416
 30
0.0
 10
0.141019
 20
0.186108
 30
0.0
 10
0.120286
 20
0.175419
 30
0.0
 10
0.098919
 20
0.162163
 30
0.0
 10
0.077884
 20
0.146129
 30
0.0
 10
0.058149
 20
0.127132
 30
0.0
 10
0.040681
 20
0.104987
 30
0.0
 10
0.026447
 20
0.079481
 30
0.0
 10
0.016411
 20
0.050430
 30
0.0
 10
0.011545
 20
0.017634
 30
0.0
 10
0.012815
 20
-0.019098
 30
0.0
 10
0.021184
 20
-0.059965
 30
0.0
 10
0.037623
 20
-0.105159
 30
0.0
 10
0.054159
 20
-0.134355
 30
0.0
 10
0.072053
 20
-0.151077
 30
0.0
 10
0.090968
 20
-0.156792
 30
0.0
 10
0.110571
 20
-0.152982
 30
0.0
 10
0.130526
 20
-0.141076
 30
0.0
 10
0.150502
 20
-0.122555
 30
0.0
 10
0.170160
 20
-0.098875
 30
0.0
 10
0.189171
 20
-0.071480
 30
0.0
 10
0.207197
 20
-0.041841
 30
0.0
 10
0.223902
 20
-0.011417
 30
0.0
 10
0.238957
 20
0.018330
 30
0.0
 10
0.252025
 20
0.045945
 30
0.0
 10
0.262770
 20
0.069969
 30
0.0
 10
0.270858
 20
0.088940
 30
0.0
 10
0.275957
 20
0.101402
 30
0.0
 10
0.277729
 20
0.105873
 30
0.0
 10
0.277871
 20
0.106931
 30
0.0
 10
0.278188
 20
0.109948
 30
0.0
 10
0.278479
 20
0.114657
 30
0.0
 10
0.278588
 20
0.120769
 30
0.0
 10
0.278335
 20
0.128045
 30
0.0
 10
0.277541
 20
0.136194
 30
0.0
 10
0.276033
 20
0.144952
 30
0.0
 10
0.273626
 20
0.154080
 30
0.0
 10
0.270165
 20
0.163288
 30
0.0
 10
0.265461
 20
0.172310
 30
0.0
 10
0.259341
 20
0.180882
 30
0.0
 10
0.251628
 20
0.188741
 30
0.0
 10
0.242145
 20
0.195620
 30
0.0
 10
0.230718
 20
0.201255
 30
0.0
 10
0.217169
 20
0.205383
 30
0.0
  0
LWPOLYLINE
  5
104
100
AcDbEntity
  8
Capa_1
 62
7
100
AcDbPolyline
 90
64
 70
1
 10
0.019425
 20
0.487958
 30
0.0
 10
0.000780
 20
0.443164
 30
0.0
 10
-0.017865
 20
0.398370
 30
0.0
 10
-0.036510
 20
0.353579
 30
0.0
 10
-0.055155
 20
0.308785
 30
0.0
 10
-0.073801
 20
0.263993
 30
0.0
 10
-0.092446
 20
0.219199
 30
0.0
 10
-0.111091
 20
0.174405
 30
0.0
 10
-0.129736
 20
0.129614
 30
0.0
 10
-0.148381
 20
0.084820
 30
0.0
 10
-0.167027
 20
0.040029
 30
0.0
 10
-0.185672
 20
-0.004765
 30
0.0
 10
-0.204317
 20
-0.049559
 30
0.0
 10
-0.222962
 20
-0.094350
 30
0.0
 10
-0.241607
 20
-0.139144
 30
0.0
 10
-0.260253
 20
-0.183938
 30
0.0
 10
-0.278898
 20
-0.228730
 30
0.0
 10
-0.287539
 20
-0.227936
 30
0.0
 10
-0.296180
 20
-0.227142
 30
0.0
 10
-0.304822
 20
-0.226348
 30
0.0
 10
-0.313463
 20
-0.225555
 30
0.0
 10
-0.322104
 20
-0.224761
 30
0.0
 10
-0.330745
 20
-0.223967
 30
0.0
 10
-0.339387
 20
-0.223173
 30
0.0
 10
-0.348028
 20
-0.222380
 30
0.0
 10
-0.356669
 20
-0.221586
 30
0.0
 10
-0.365311
 20
-0.220792
 30
0.0
 10
-0.373952
 20
-0.219998
 30
0.0
 10
-0.382593
 20
-0.219205
 30
0.0
 10
-0.391235
 20
-0.218411
 30
0.0
 10
-0.399876
 20
-0.217617
 30
0.0
 10
-0.408517
 20
-0.216823
 30
0.0
 10
-0.417158
 20
-0.216030
 30
0.0
 10
-0.400561
 20
-0.171693
 30
0.0
 10
-0.383964
 20
-0.127355
 30
0.0
 10
-0.367366
 20
-0.083016
 30
0.0
 10
-0.350769
 20
-0.038677
 30
0.0
 10
-0.334172
 20
0.005659
 30
0.0
 10
-0.317575
 20
0.049998
 30
0.0
 10
-0.300977
 20
0.094337
 30
0.0
 10
-0.284380
 20
0.138673
 30
0.0
 10
-0.267783
 20
0.183012
 30
0.0
 10
-0.251185
 20
0.227351
 30
0.0
 10
-0.234588
 20
0.271690
 30
0.0
 10
-0.217991
 20
0.316026
 30
0.0
 10
-0.201393
 20
0.360365
 30
0.0
 10
-0.184796
 20
0.404704
 30
0.0
 10
-0.168199
 20
0.449043
 30
0.0
 10
-0.151601
 20
0.493379
 30
0.0
 10
-0.140915
 20
0.493152
 30
0.0
 10
-0.130228
 20
0.492924
 30
0.0
 10
-0.119542
 20
0.492699
 30
0.0
 10
-0.108855
 20
0.492472
 30
0.0
 10
-0.098169
 20
0.492244
 30
0.0
 10
-0.087482
 20
0.492017
 30
0.0
 10
-0.076796
 20
0.491789
 30
0.0
 10
-0.066109
 20
0.491561
 30
0.0
 10
-0.055423
 20
0.491334
 30
0.0
 10
-0.044736
 20
0.491106
 30
0.0
 10
-0.034050
 20
0.490879
 30
0.0
 10
-0.023363
 20
0.490651
 30
0.0
 10
-0.012677
 20
0.490424
 30
0.0
 10
-0.001990
 20
0.490196
 30
0.0
 10
0.008696
 20
0.489971
 30
0.0
  0
LWPOLYLINE
  5
105
100
AcDbEntity
  8
Capa_1
 62
7
100
AcDbPolyline
 90
128
 70
1
 10
-0.682710
 20
-0.221454
 30
0.0
 10
-0.674751
 20
-0.201901
 30
0.0
 10
-0.666792
 20
-0.182348
 30
0.0
 10
-0.658834
 20
-0.162795
 30
0.0
 10
-0.650875
 20
-0.143243
 30
0.0
 10
-0.642916
 20
-0.123690
 30
0.0
 10
-0.634958
 20
-0.104137
 30
0.0
 10
-0.626999
 20
-0.084585
 30
0.0
 10
-0.619040
 20
-0.065032
 30
0.0
 10
-0.611082
 20
-0.045479
 30
0.0
 10
-0.603123
 20
-0.025927
 30
0.0
 10
-0.595164
 20
-0.006374
 30
0.0
 10
-0.587206
 20
0.013179
 30
0.0
 10
-0.579247
 20
0.032732
 30
0.0
 10
-0.571288
 20
0.052284
 30
0.0
 10
-0.563330
 20
0.071837
 30
0.0
 10
-0.555371
 20
0.091390
 30
0.0
 10
-0.544684
 20
0.091162
 30
0.0
 10
-0.533998
 20
0.090935
 30
0.0
 10
-0.523311
 20
0.090710
 30
0.0
 10
-0.512625
 20
0.090482
 30
0.0
 10
-0.501938
 20
0.090255
 30
0.0
 10
-0.491252
 20
0.090027
 30
0.0
 10
-0.480565
 20
0.089800
 30
0.0
 10
-0.469879
 20
0.089572
 30
0.0
 10
-0.459192
 20
0.089344
 30
0.0
 10
-0.448506
 20
0.089117
 30
0.0
 10
-0.437819
 20
0.088889
 30
0.0
 10
-0.427133
 20
0.088662
 30
0.0
 10
-0.416446
 20
0.088434
 30
0.0
 10
-0.405760
 20
0.088207
 30
0.0
 10
-0.395073
 20
0.087982
 30
0.0
 10
-0.384387
 20
0.087754
 30
0.0
 10
-0.381204
 20
0.095930
 30
0.0
 10
-0.378021
 20
0.104106
 30
0.0
 10
-0.374838
 20
0.112281
 30
0.0
 10
-0.371655
 20
0.120457
 30
0.0
 10
-0.368472
 20
0.128632
 30
0.0
 10
-0.365289
 20
0.136808
 30
0.0
 10
-0.362106
 20
0.144984
 30
0.0
 10
-0.358923
 20
0.153159
 30
0.0
 10
-0.355740
 20
0.161335
 30
0.0
 10
-0.352557
 20
0.169511
 30
0.0
 10
-0.349374
 20
0.177686
 30
0.0
 10
-0.346191
 20
0.185862
 30
0.0
 10
-0.343008
 20
0.194037
 30
0.0
 10
-0.339825
 20
0.202213
 30
0.0
 10
-0.336643
 20
0.210389
 30
0.0
 10
-0.333460
 20
0.218564
 30
0.0
 10
-0.343919
 20
0.218564
 30
0.0
 10
-0.354378
 20
0.218564
 30
0.0
 10
-0.364837
 20
0.218564
 30
0.0
 10
-0.375296
 20
0.218564
 30
0.0
 10
-0.385754
 20
0.218564
 30
0.0
 10
-0.396213
 20
0.218564
 30
0.0
 10
-0.406672
 20
0.218564
 30
0.0
 10
-0.417131
 20
0.218564
 30
0.0
 10
-0.427590
 20
0.218564
 30
0.0
 10
-0.438049
 20
0.218564
 30
0.0
 10
-0.448508
 20
0.218564
 30
0.0
 10
-0.458967
 20
0.218564
 30
0.0
 10
-0.469426
 20
0.218564
 30
0.0
 10
-0.479885
 20
0.218564
 30
0.0
 10
-0.490344
 20
0.218564
 30
0.0
 10
-0.500803
 20
0.218564
 30
0.0
 10
-0.497393
 20
0.225840
 30
0.0
 10
-0.493982
 20
0.233116
 30
0.0
 10
-0.490572
 20
0.240392
 30
0.0
 10
-0.487161
 20
0.247669
 30
0.0
 10
-0.483751
 20
0.254945
 30
0.0
 10
-0.480340
 20
0.262221
 30
0.0
 10
-0.476930
 20
0.269497
 30
0.0
 10
-0.473519
 20
0.276773
 30
0.0
 10
-0.470109
 20
0.284049
 30
0.0
 10
-0.466698
 20
0.291325
 30
0.0
 10
-0.463288
 20
0.298601
 30
0.0
 10
-0.459878
 20
0.305877
 30
0.0
 10
-0.456467
 20
0.313153
 30
0.0
 10
-0.453057
 20
0.320429
 30
0.0
 10
-0.449646
 20
0.327705
 30
0.0
 10
-0.446236
 20
0.334981
 30
0.0
 10
-0.448088
 20
0.335148
 30
0.0
 10
-0.453377
 20
0.335412
 30
0.0
 10
-0.461703
 20
0.335584
 30
0.0
 10
-0.472667
 20
0.335336
 30
0.0
 10
-0.485870
 20
0.334277
 30
0.0
 10
-0.500912
 20
0.332425
 30
0.0
 10
-0.517393
 20
0.329224
 30
0.0
 10
-0.534911
 20
0.324461
 30
0.0
 10
-0.553069
 20
0.317873
 30
0.0
 10
-0.571468
 20
0.309168
 30
0.0
 10
-0.589706
 20
0.298056
 30
0.0
 10
-0.607385
 20
0.284271
 30
0.0
 10
-0.624104
 20
0.267523
 30
0.0
 10
-0.639466
 20
0.247520
 30
0.0
 10
-0.653068
 20
0.223999
 30
0.0
 10
-0.664512
 20
0.196667
 30
0.0
 10
-0.675793
 20
0.166026
 30
0.0
 10
-0.688935
 20
0.133152
 30
0.0
 10
-0.703580
 20
0.098623
 30
0.0
 10
-0.719370
 20
0.063026
 30
0.0
 10
-0.735949
 20
0.026940
 30
0.0
 10
-0.752959
 20
-0.009059
 30
0.0
 10
-0.770043
 20
-0.044384
 30
0.0
 10
-0.786844
 20
-0.078457
 30
0.0
 10
-0.803008
 20
-0.110696
 30
0.0
 10
-0.818174
 20
-0.140523
 30
0.0
 10
-0.831985
 20
-0.167354
 30
0.0
 10
-0.844087
 20
-0.190611
 30
0.0
 10
-0.854120
 20
-0.209714
 30
0.0
 10
-0.861729
 20
-0.224081
 30
0.0
 10
-0.866555
 20
-0.233130
 30
0.0
 10
-0.868249
 20
-0.236278
 30
0.0
 10
-0.856652
 20
-0.235484
 30
0.0
 10
-0.845055
 20
-0.234691
 30
0.0
 10
-0.833459
 20
-0.233897
 30
0.0
 10
-0.821862
 20
-0.233103
 30
0.0
 10
-0.810265
 20
-0.232309
 30
0.0
 10
-0.798669
 20
-0.231516
 30
0.0
 10
-0.787072
 20
-0.230722
 30
0.0
 10
-0.775475
 20
-0.229928
 30
0.0
 10
-0.763878
 20
-0.229134
 30
0.0
 10
-0.752282
 20
-0.228341
 30
0.0
 10
-0.740685
 20
-0.227547
 30
0.0
 10
-0.729088
 20
-0.226753
 30
0.0
 10
-0.717492
 20
-0.225959
 30
0.0
 10
-0.705895
 20
-0.225166
 30
0.0
 10
-0.694298
 20
-0.224372
 30
0.0
  0
ENDSEC
  0
SECTION
  2
OBJECTS
  0
DICTIONARY
  5
C
330
0
100
AcDbDictionary
  3
ACAD_GROUP
350
D
  3
ACAD_MLINESTYLE
350
17
  0
DICTIONARY
  5
D
330
C
100
AcDbDictionary
  0
DICTIONARY
  5
1A
330
C
100
AcDbDictionary
  0
DICTIONARY
  5
17
330
C
100
AcDbDictionary
  3
STANDARD
350
18
  0
DICTIONARY
  5
19
330
C
100
AcDbDictionary
  0
ENDSEC
  0
EOF
